<svg xmlns="http://www.w3.org/2000/svg" viewBox="0 0 261.19 140.09"><defs><style>.cls-1,.cls-2{fill:#0b3d5c;}.cls-12,.cls-2{fill-rule:evenodd;}.cls-3{fill:#196436;}.cls-4{fill:#65b4e3;}.cls-5{fill:#583888;}.cls-6{fill:#528c46;}.cls-7{fill:#d2701f;}.cls-8{fill:#532762;}.cls-9{fill:#bb521f;}.cls-10{fill:#8aa339;}.cls-11{fill:#fff;opacity:0.75;}.cls-12,.cls-13{fill:none;}</style></defs><title>Recurso 10</title><g id="Capa_2" data-name="Capa 2"><g id="Capa_1-2" data-name="Capa 1"><path class="cls-1" d="M34.72,64.1a19.73,19.73,0,0,0,9.5-1c.62,1.11,1.54,3-.73,4.21-1.55.86-4,1.33-8.26,1.33-8.76,0-14.84-4.14-14.89-14.21-.05-10.29,6.13-14,14.89-14A21.44,21.44,0,0,1,43,41.57c2.26.86,2.09,3.07,1.27,4.46a19.86,19.86,0,0,0-9.5-1c-5.24.86-6.92,3.89-6.92,9C27.8,59.48,29.48,63.24,34.72,64.1Z"/><path class="cls-2" d="M59,65.1c2.89,0,3.89-1.65,3.89-3V58.44s-3.35.4-5.66.93c-2.08.48-2.73,1.12-2.73,2.76C54.51,64,55.73,65.1,59,65.1Zm.53-17.73c5.48,0,9.73,1.81,9.73,6.84v8.11c0,3.58-3.47,6.35-10,6.35s-10.87-2.11-10.87-6.91c0-4.21,3.09-5.22,11.57-6.48l2.92-.44c0-2.6-.34-3.77-4.58-3.77a28.69,28.69,0,0,0-7.69,1.27c-.64-1.41-.44-3.11.54-3.66S54.6,47.37,59.54,47.37Z"/><path class="cls-2" d="M86.42,47.92c1.16.43,1.67,1.65,1.24,3.45a26.84,26.84,0,0,0-3.27-.21c-3.15,0-3.84.94-3.84,3.42v9.67a4.06,4.06,0,0,1-4.3,4.15,8,8,0,0,1-2.19-.19V54.26c0-4.7,2.91-6.87,7.69-6.87A13.69,13.69,0,0,1,86.42,47.92Z"/><path class="cls-2" d="M112.94,47.37a3.66,3.66,0,0,1,1.76.44L107.61,65.1a4.9,4.9,0,0,1-4.68,3.32,5.18,5.18,0,0,1-5.27-3.32L90.77,48.16a6.93,6.93,0,0,1,3.4-.79c2.48,0,3.91,1.23,4.46,2.72l5,13.34,4.79-12.9A4.29,4.29,0,0,1,112.94,47.37Z"/><path class="cls-2" d="M136.36,75.73c-1.15-.43-1.67-1.65-1.23-3.45a26.78,26.78,0,0,0,3.26.21c3.16,0,3.85-.94,3.85-3.42V51.53a4.06,4.06,0,0,1,4.3-4.16,8,8,0,0,1,2.2.19V69.4c0,4.69-2.9,6.86-7.68,6.86A13.72,13.72,0,0,1,136.36,75.73Z"/><path class="cls-2" d="M163.35,65.1c3.28,0,4.09-1.65,4.1-3V58.44s-3.69.4-6,.93c-2.09.48-2.73,1.12-2.73,2.76C158.72,64.11,160.06,65.1,163.35,65.1Zm.4-17.73c5.48,0,9.73,1.81,9.73,6.84v8.24c0,3.58-3.47,6.22-10,6.22s-10.75-2.11-10.75-6.91c0-4.21,2.95-5.35,11.45-6.48l3.25-.44c-.06-2.59-.67-3.77-4.92-3.77a28.67,28.67,0,0,0-7.68,1.27c-.64-1.41-.44-3.11.54-3.66S158.81,47.37,163.75,47.37Z"/><path class="cls-2" d="M190.51,67.88a13.58,13.58,0,0,1-4.69.54c-4.78,0-7.68-2.17-7.68-6.87V39.72a8,8,0,0,1,2.19-.19,4.06,4.06,0,0,1,4.31,4.15V61.22c0,2.49.69,3.42,3.84,3.42a26.84,26.84,0,0,0,3.27-.21C192.18,66.24,191.67,67.45,190.51,67.88Z"/><path class="cls-2" d="M126.83,65.1c2.89,0,3.88-1.65,3.88-3V58.44s-3.35.4-5.66.93c-2.08.48-2.73,1.12-2.73,2.76C122.32,64,123.54,65.1,126.83,65.1Zm.52-17.73c5.49,0,9.74,1.81,9.74,6.84v8c0,3.58-3.48,6.47-10,6.47s-10.88-2.11-10.88-6.91c0-4.21,3.1-5.22,11.58-6.48l2.91-.44c0-2.6-.33-3.77-4.58-3.77a28.79,28.79,0,0,0-7.69,1.27c-.64-1.41-.44-3.11.55-3.66S122.41,47.37,127.35,47.37Z"/><rect class="cls-3" x="217.06" y="39.47" width="4.94" height="4.88"/><path class="cls-4" d="M206.46,52.38A2.54,2.54,0,0,0,209,54.92h8.07V44.35h-10.6Z"/><path class="cls-5" d="M226.84,24V34.56h10.55v-8A2.54,2.54,0,0,0,234.85,24Z"/><rect class="cls-6" x="217.06" y="44.35" width="4.94" height="10.57"/><path class="cls-7" d="M202.72,44.35h3.74V39.47h10.6V34.56H222V24h4.84V20.34H205.25a2.54,2.54,0,0,0-2.54,2.53Z"/><rect class="cls-8" x="222" y="24.01" width="4.84" height="10.55"/><rect class="cls-8" x="226.84" y="34.56" width="10.55" height="4.91"/><rect class="cls-9" x="217.06" y="34.56" width="4.94" height="4.91"/><polygon class="cls-8" points="222 34.56 222 39.47 222 39.47 226.84 39.47 226.84 34.56 222 34.56"/><polygon class="cls-9" points="222 39.47 222 44.35 222 44.35 226.84 44.35 226.84 39.47 222 39.47"/><rect class="cls-6" x="206.46" y="39.47" width="10.6" height="4.88"/><path class="cls-10" d="M238.31,58.4a2.54,2.54,0,0,0,2.54-2.54V34.56h-3.46v4.91H226.84v4.88H222V54.92h-4.94v3.46Z"/><path class="cls-11" d="M234.26,43.86a4.68,4.68,0,0,0-6.92,0L222,49.24l-9.86-9.78L222,29.64l5.58,5.63a4.83,4.83,0,0,0,6.46,0c1.62-1.52,2.09-2.07,2.09-2.07l-8.59-8.59a8,8,0,0,0-11.2,0l-9.28,9.27a7.87,7.87,0,0,0,0,11.12l9.33,9.33a8,8,0,0,0,11.2,0l8.58-8.58Z"/><path class="cls-1" d="M27.09,89.5a3.11,3.11,0,0,0-1-.69,3,3,0,0,0-1.25-.24A1.87,1.87,0,0,0,23.5,89a1.46,1.46,0,0,0-.48,1.1,1.48,1.48,0,0,0,.1.57,1.23,1.23,0,0,0,.32.48,2.15,2.15,0,0,0,.61.4,8.73,8.73,0,0,0,1,.4,14.6,14.6,0,0,1,1.77.72,5,5,0,0,1,1.18.79,2.76,2.76,0,0,1,.66,1,3.19,3.19,0,0,1,.21,1.19,4.61,4.61,0,0,1-.19,1.28A2.77,2.77,0,0,1,28,98a3.53,3.53,0,0,1-1.29.78,5.94,5.94,0,0,1-2,.3,5.89,5.89,0,0,1-2.41-.45,6.1,6.1,0,0,1-1.76-1.18l1.27-1.59a3.89,3.89,0,0,0,1.33,1,4,4,0,0,0,1.58.31,2.4,2.4,0,0,0,1.59-.4,1.67,1.67,0,0,0,.34-1.7,1.29,1.29,0,0,0-.36-.47,3.4,3.4,0,0,0-.71-.42,11.62,11.62,0,0,0-1.15-.45,6.67,6.67,0,0,1-2.65-1.43,2.94,2.94,0,0,1-.86-2.22,3.63,3.63,0,0,1,.26-1.37,3.22,3.22,0,0,1,.78-1.09,3.48,3.48,0,0,1,1.25-.72,5.19,5.19,0,0,1,1.7-.26,4.89,4.89,0,0,1,2,.38,5.08,5.08,0,0,1,1.44.95Z"/><path class="cls-1" d="M30.32,92.88a6.69,6.69,0,0,1,.47-2.52,6.12,6.12,0,0,1,1.31-2,5.9,5.9,0,0,1,2-1.29,6.54,6.54,0,0,1,2.47-.47A6.47,6.47,0,0,1,39,87.1a5.71,5.71,0,0,1,2,1.29,5.86,5.86,0,0,1,1.31,2,6.36,6.36,0,0,1,.47,2.5,6.49,6.49,0,0,1-.47,2.54A5.82,5.82,0,0,1,39,98.64a6.65,6.65,0,0,1-2.47.45,6.94,6.94,0,0,1-2.47-.44,5.85,5.85,0,0,1-2-1.27,6,6,0,0,1-1.31-2A6.72,6.72,0,0,1,30.32,92.88Zm2.14,0a4.72,4.72,0,0,0,.29,1.71,4,4,0,0,0,.82,1.35,3.69,3.69,0,0,0,1.3.88,4.3,4.3,0,0,0,1.68.31,4.39,4.39,0,0,0,1.69-.32,3.89,3.89,0,0,0,1.29-.88,4,4,0,0,0,.83-1.36,5.19,5.19,0,0,0,0-3.42,4,4,0,0,0-.83-1.35,3.77,3.77,0,0,0-1.29-.89,4.39,4.39,0,0,0-1.69-.32,4.3,4.3,0,0,0-1.68.32,3.72,3.72,0,0,0-1.3.89,4,4,0,0,0-.82,1.36A4.82,4.82,0,0,0,32.46,92.88Z"/><path class="cls-1" d="M44.94,86.84h2.13V96.92H52.2v2H44.94Z"/><path class="cls-1" d="M61.08,86.84h2.14v7.54a6.14,6.14,0,0,1-.29,1.92,4,4,0,0,1-.87,1.49,4.12,4.12,0,0,1-1.5,1,6.12,6.12,0,0,1-2.16.34,6,6,0,0,1-2.16-.35,4,4,0,0,1-1.5-1,3.86,3.86,0,0,1-.88-1.49,6.1,6.1,0,0,1-.28-1.9V86.84h2.13v7.55a2.73,2.73,0,0,0,.71,2.09,2.83,2.83,0,0,0,2,.65,2.4,2.4,0,0,0,2.68-2.74Z"/><path class="cls-1" d="M71.7,97.13a4,4,0,0,0,1.42-.24,4.15,4.15,0,0,0,1.15-.64l1.12,1.67a5.92,5.92,0,0,1-1.62.85,6.42,6.42,0,0,1-2.07.32,6.73,6.73,0,0,1-2.47-.45,6.18,6.18,0,0,1-2-1.28,5.67,5.67,0,0,1-1.31-2,6.5,6.5,0,0,1-.48-2.54,6.42,6.42,0,0,1,.48-2.49,6.08,6.08,0,0,1,1.3-2,5.72,5.72,0,0,1,2-1.29,6.45,6.45,0,0,1,2.46-.47,6.06,6.06,0,0,1,2.09.31,6.13,6.13,0,0,1,1.59.86l-1.11,1.67a4.18,4.18,0,0,0-1.11-.64,4,4,0,0,0-1.46-.24,4.31,4.31,0,0,0-1.61.3,3.42,3.42,0,0,0-1.29.85,4,4,0,0,0-.85,1.35,4.77,4.77,0,0,0-.31,1.77,4.69,4.69,0,0,0,.31,1.77A4,4,0,0,0,68.76,96a3.76,3.76,0,0,0,1.31.85A4.58,4.58,0,0,0,71.7,97.13Z"/><path class="cls-1" d="M77.62,86.84h2.14v12H77.62Z"/><path class="cls-1" d="M81.91,92.88a6.69,6.69,0,0,1,.47-2.52,6.12,6.12,0,0,1,1.31-2,5.9,5.9,0,0,1,2-1.29,6.54,6.54,0,0,1,2.47-.47,6.47,6.47,0,0,1,2.47.47,5.86,5.86,0,0,1,3.29,3.26,6.36,6.36,0,0,1,.47,2.5,6.49,6.49,0,0,1-.47,2.54,5.82,5.82,0,0,1-1.31,2,5.93,5.93,0,0,1-2,1.28,6.65,6.65,0,0,1-2.47.45,6.94,6.94,0,0,1-2.47-.44,5.85,5.85,0,0,1-2-1.27,6,6,0,0,1-1.31-2A6.72,6.72,0,0,1,81.91,92.88Zm2.14,0a4.72,4.72,0,0,0,.29,1.71,4,4,0,0,0,.82,1.35,3.69,3.69,0,0,0,1.3.88,4.3,4.3,0,0,0,1.68.31,4.39,4.39,0,0,0,1.69-.32,3.89,3.89,0,0,0,1.29-.88A4,4,0,0,0,92,94.57a5.19,5.19,0,0,0,0-3.42,4,4,0,0,0-.83-1.35,3.77,3.77,0,0,0-1.29-.89,4.39,4.39,0,0,0-1.69-.32,4.3,4.3,0,0,0-1.68.32,3.72,3.72,0,0,0-1.3.89,4,4,0,0,0-.82,1.36A4.82,4.82,0,0,0,84.05,92.88Z"/><path class="cls-1" d="M98.62,89.73l0,1.15v8H96.52v-12h2.57L104.53,96l0-1.11v-8h2.14v12h-2.57Z"/><path class="cls-1" d="M109.38,86.84h8.23v2h-6.09v3.08h5.2v2h-5.2v3.08h6.21v2h-8.35Z"/><path class="cls-1" d="M126.2,89.5a2.94,2.94,0,0,0-2.24-.93,1.9,1.9,0,0,0-1.35.45,1.48,1.48,0,0,0-.47,1.1,1.7,1.7,0,0,0,.09.57,1.35,1.35,0,0,0,.32.48,2.48,2.48,0,0,0,.61.4,8.73,8.73,0,0,0,1,.4,15.53,15.53,0,0,1,1.78.72,4.68,4.68,0,0,1,1.17.79,2.66,2.66,0,0,1,.67,1,3.2,3.2,0,0,1,.2,1.19,4.6,4.6,0,0,1-.18,1.28,2.68,2.68,0,0,1-.67,1.1,3.4,3.4,0,0,1-1.28.78,6.89,6.89,0,0,1-4.46-.15,6.05,6.05,0,0,1-1.75-1.18l1.27-1.59a3.8,3.8,0,0,0,1.33,1,4,4,0,0,0,1.58.31,2.37,2.37,0,0,0,1.58-.4,1.43,1.43,0,0,0,.45-1.13,1.45,1.45,0,0,0-.1-.57,1.22,1.22,0,0,0-.37-.47,3.3,3.3,0,0,0-.7-.42,11.62,11.62,0,0,0-1.15-.45,6.72,6.72,0,0,1-2.66-1.43,3,3,0,0,1-.86-2.22,3.45,3.45,0,0,1,.27-1.37,3.22,3.22,0,0,1,.78-1.09,3.44,3.44,0,0,1,1.24-.72,5.25,5.25,0,0,1,1.71-.26,4.84,4.84,0,0,1,2,.38,5,5,0,0,1,1.45.95Z"/><path class="cls-1" d="M134,86.84h8.23v2h-6.1v3.08h5.2v2h-5.2v3.08h6.22v2H134Z"/><path class="cls-1" d="M146.86,89.73l0,1.15v8h-2.13v-12h2.56L152.76,96l0-1.11v-8h2.13v12H152.3Z"/><path class="cls-1" d="M20.34,107.49h9v2H25.88v10.08H23.75V109.46H20.34Z"/><path class="cls-1" d="M31.35,107.49h8.23v2H33.49v3.08h5.2v2h-5.2v3.08H39.7v2H31.35Z"/><path class="cls-1" d="M47.33,117.79a4.07,4.07,0,0,0,1.42-.24,4.21,4.21,0,0,0,1.14-.64L51,118.58a6.19,6.19,0,0,1-1.62.84,6.1,6.1,0,0,1-2.06.33,6.46,6.46,0,0,1-2.47-.46,5.8,5.8,0,0,1-3.31-3.23,6.72,6.72,0,0,1-.47-2.54,6.53,6.53,0,0,1,.47-2.49,6.25,6.25,0,0,1,1.3-2,5.79,5.79,0,0,1,2-1.3,6.38,6.38,0,0,1,2.46-.46,6.1,6.1,0,0,1,2.09.31,5.84,5.84,0,0,1,1.59.86l-1.12,1.67a3.87,3.87,0,0,0-1.1-.64,4,4,0,0,0-1.46-.24,4.47,4.47,0,0,0-1.61.29,3.67,3.67,0,0,0-1.29.85,4,4,0,0,0-.86,1.36,4.9,4.9,0,0,0-.31,1.77,5,5,0,0,0,.31,1.77,4.06,4.06,0,0,0,.86,1.35,3.73,3.73,0,0,0,1.31.86A4.63,4.63,0,0,0,47.33,117.79Z"/><path class="cls-1" d="M55.35,110.39l0,1.15v8H53.25V107.49h2.56l5.44,9.16,0-1.1v-8.06h2.13v12.05H60.79Z"/><path class="cls-1" d="M65.51,113.54A6.5,6.5,0,0,1,66,111a5.76,5.76,0,0,1,1.31-2,5.85,5.85,0,0,1,2-1.29,6.46,6.46,0,0,1,2.47-.46,6.54,6.54,0,0,1,2.47.46A5.86,5.86,0,0,1,77.5,111a6.64,6.64,0,0,1,.47,2.51,6.72,6.72,0,0,1-.47,2.54,6,6,0,0,1-1.31,2,5.85,5.85,0,0,1-2,1.27,6.54,6.54,0,0,1-2.47.46,6.65,6.65,0,0,1-2.47-.45A5.71,5.71,0,0,1,66,116.08,6.53,6.53,0,0,1,65.51,113.54Zm2.13,0a5,5,0,0,0,.29,1.71,4,4,0,0,0,.83,1.35,3.65,3.65,0,0,0,1.29.88,4.58,4.58,0,0,0,1.69.31,4.3,4.3,0,0,0,1.68-.32,3.72,3.72,0,0,0,1.3-.89,4,4,0,0,0,.82-1.35,5.19,5.19,0,0,0,0-3.42,4,4,0,0,0-.82-1.36,3.83,3.83,0,0,0-1.3-.88,4.3,4.3,0,0,0-1.68-.32,4.39,4.39,0,0,0-1.69.32,3.79,3.79,0,0,0-1.29.88,4,4,0,0,0-.83,1.37A5,5,0,0,0,67.64,113.54Z"/><path class="cls-1" d="M80.12,107.49h2.14v10.09h5.12v2H80.12Z"/><path class="cls-1" d="M87.64,113.54a6.5,6.5,0,0,1,.48-2.52,5.76,5.76,0,0,1,1.31-2,5.91,5.91,0,0,1,2-1.29,6.54,6.54,0,0,1,2.47-.46,6.46,6.46,0,0,1,2.47.46A5.86,5.86,0,0,1,99.63,111a6.45,6.45,0,0,1,.48,2.51,6.53,6.53,0,0,1-.48,2.54,5.77,5.77,0,0,1-3.29,3.23,6.46,6.46,0,0,1-2.47.46,6.73,6.73,0,0,1-2.47-.45,5.84,5.84,0,0,1-2-1.26,5.77,5.77,0,0,1-1.31-2A6.53,6.53,0,0,1,87.64,113.54Zm2.14,0a4.72,4.72,0,0,0,.29,1.71,4,4,0,0,0,.83,1.35,3.57,3.57,0,0,0,1.29.88,4.53,4.53,0,0,0,1.68.31,4.35,4.35,0,0,0,1.69-.32,3.59,3.59,0,0,0,1.29-.89,4,4,0,0,0,.83-1.35,5.19,5.19,0,0,0,0-3.42,4,4,0,0,0-.83-1.36,3.7,3.7,0,0,0-1.29-.88,4.6,4.6,0,0,0-3.37,0,3.7,3.7,0,0,0-1.29.88,4,4,0,0,0-.83,1.37A4.78,4.78,0,0,0,89.78,113.54Z"/><path class="cls-1" d="M107.94,107.29a6.2,6.2,0,0,1,2.1.31,6,6,0,0,1,1.6.86l-1.12,1.67a3.79,3.79,0,0,0-1.11-.64,4.12,4.12,0,0,0-1.47-.24,4.47,4.47,0,0,0-1.61.29,3.67,3.67,0,0,0-1.29.85,4,4,0,0,0-.85,1.36,4.69,4.69,0,0,0-.31,1.77,5,5,0,0,0,.3,1.77,3.86,3.86,0,0,0,.84,1.35,3.57,3.57,0,0,0,1.29.86,4.54,4.54,0,0,0,1.63.29,4.63,4.63,0,0,0,1.31-.17,3.83,3.83,0,0,0,1.1-.59V114.5h-2.88v-2h4.94v5.4a6.72,6.72,0,0,1-2,1.36,6.19,6.19,0,0,1-2.45.45,6.61,6.61,0,0,1-2.52-.46,5.61,5.61,0,0,1-3.22-3.23,7.17,7.17,0,0,1,0-5.08,6,6,0,0,1,1.31-2,6.09,6.09,0,0,1,2-1.28A6.62,6.62,0,0,1,107.94,107.29Z"/><path class="cls-1" d="M114.75,107.49h2.14v12.05h-2.14Zm1.4-3.65h2l-1.69,2.62H115.2Z"/><path class="cls-1" d="M129.85,119.54h-2.27l-1-2.8h-5l-1,2.8h-2.27l4.32-12.05h2.77Zm-7.56-4.7H126l-1.84-5.47Z"/><path class="cls-12" d="M137.53,129.69c0-3.22-1.62-4-2.91-4H131s.39,3.61.91,5.88c.47,2,1.09,2.67,2.7,2.67C136.57,134.22,137.53,132.91,137.53,129.69Zm-17.38-.4c0-5.37,1.77-9.54,6.7-9.54h8.09c3.5,0,6.09,3.41,6.09,9.8s-2.07,10.54-6.77,10.54c-4.12,0-5.25-2.89-6.36-11.23l-.43-3.19c-2.54.07-3.69.66-3.69,4.82A28.3,28.3,0,0,0,125,138c-1.38.63-3,.43-3.58-.53S120.15,134.14,120.15,129.29Z"/><path class="cls-12" d="M137.53,9.94c0-3.22-1.62-4-2.91-4H131s.39,3.62.9,5.88c.48,2,1.1,2.68,2.71,2.68C136.57,14.48,137.53,13.16,137.53,9.94Zm-17.38-.39c0-5.38,1.77-9.55,6.7-9.55h8.09c3.5,0,6.09,3.41,6.09,9.8S139,20.34,134.26,20.34c-4.12,0-5.25-2.89-6.36-11.23l-.43-3.19c-2.54.07-3.69.66-3.69,4.83A28.28,28.28,0,0,0,125,18.28c-1.38.63-3,.43-3.58-.53S120.15,14.39,120.15,9.55Z"/><path class="cls-12" d="M10.4,77c3.22,0,4-1.63,4-2.92V70.46s-3.62.39-5.88.91c-2,.47-2.68,1.1-2.68,2.7C5.86,76,7.18,77,10.4,77Zm.39-17.39c5.38,0,9.55,1.77,9.55,6.7v8.09c0,3.51-3.41,6.09-9.8,6.09S0,78.41,0,73.71c0-4.12,2.89-5.25,11.23-6.36l3.19-.43c-.07-2.54-.66-3.69-4.83-3.69a28.18,28.18,0,0,0-7.53,1.24c-.63-1.38-.43-3,.53-3.58S6,59.6,10.79,59.6Z"/><path class="cls-12" d="M251.25,77c3.21,0,4-1.63,4-2.92V70.46s-3.62.39-5.89.91c-2,.47-2.67,1.1-2.67,2.7C246.71,76,248,77,251.25,77Zm.39-17.39c5.38,0,9.55,1.77,9.55,6.7v8.09c0,3.51-3.41,6.09-9.8,6.09s-10.54-2.07-10.54-6.77c0-4.12,2.89-5.25,11.22-6.36l3.19-.42c-.06-2.55-.65-3.7-4.82-3.7a28.3,28.3,0,0,0-7.54,1.24c-.62-1.38-.43-3,.54-3.58S246.79,59.6,251.64,59.6Z"/><rect class="cls-13" x="20.34" y="20.34" width="220.51" height="99.41"/><rect class="cls-13" width="261.19" height="140.09"/></g></g></svg>