<svg xmlns="http://www.w3.org/2000/svg" viewBox="0 0 261.19 119.54"><defs><style>.cls-1,.cls-4{fill:#243d5a;}.cls-2,.cls-3{fill:none;}.cls-2,.cls-4{fill-rule:evenodd;}.cls-5{fill:#196436;}.cls-6{fill:#5cb4e3;}.cls-7{fill:#583888;}.cls-8{fill:#528c47;}.cls-9{fill:#d67c1b;}.cls-10{fill:#541f62;}.cls-11{fill:#c25d1a;}.cls-12{fill:#381e5a;}.cls-13{fill:#99bc39;}.cls-14{fill:#fff;opacity:0.75;}</style></defs><title>Recurso 8</title><g id="Capa_2" data-name="Capa 2"><g id="Capa_1-2" data-name="Capa 1"><path class="cls-1" d="M20.35,86.62h8.52v2H22.56v3.19H28v2H22.56v3.2H29v2H20.35Z"/><path class="cls-1" d="M37.77,89.39a3,3,0,0,0-1-.72,3.24,3.24,0,0,0-1.3-.25,1.94,1.94,0,0,0-1.4.47A1.5,1.5,0,0,0,33.57,90a1.87,1.87,0,0,0,.09.59,1.41,1.41,0,0,0,.33.49,2.53,2.53,0,0,0,.64.42,8.56,8.56,0,0,0,1,.41,15.08,15.08,0,0,1,1.84.75,4.89,4.89,0,0,1,1.22.82,2.7,2.7,0,0,1,.69,1,3.39,3.39,0,0,1,.21,1.24,4.53,4.53,0,0,1-.19,1.32,2.8,2.8,0,0,1-.69,1.14A3.67,3.67,0,0,1,37.4,99a7.11,7.11,0,0,1-4.62-.16A6.31,6.31,0,0,1,31,97.63L32.28,96a3.93,3.93,0,0,0,3,1.33,2.53,2.53,0,0,0,1.64-.41,1.49,1.49,0,0,0,.46-1.17,1.57,1.57,0,0,0-.11-.6,1.25,1.25,0,0,0-.37-.48,3.19,3.19,0,0,0-.73-.44,11.92,11.92,0,0,0-1.2-.46,7.12,7.12,0,0,1-2.74-1.48,3.07,3.07,0,0,1-.9-2.3,3.67,3.67,0,0,1,.28-1.42,3.11,3.11,0,0,1,.8-1.13,3.4,3.4,0,0,1,1.3-.75,5.29,5.29,0,0,1,1.76-.27,5,5,0,0,1,2.07.39,5.48,5.48,0,0,1,1.5,1Z"/><path class="cls-1" d="M44,94.93v4.18H41.75V86.62h5.17a6.1,6.1,0,0,1,1.77.25,3.82,3.82,0,0,1,1.39.76A3.49,3.49,0,0,1,51,88.92a4.76,4.76,0,0,1,.33,1.84A4.54,4.54,0,0,1,51,92.6a3.44,3.44,0,0,1-.93,1.3,3.9,3.9,0,0,1-1.4.78,5.76,5.76,0,0,1-1.74.25Zm0-6.27V92.9h2.89c1.51,0,2.27-.72,2.27-2.16a2,2,0,0,0-.6-1.56,2.44,2.44,0,0,0-1.67-.52Z"/><path class="cls-1" d="M62.8,99.11H60.44l-1-2.91H54.31l-1,2.91H51l4.48-12.49h2.87ZM55,94.24h3.82l-1.91-5.67Z"/><path class="cls-1" d="M69.63,97.29A4.09,4.09,0,0,0,71.1,97a4.56,4.56,0,0,0,1.19-.66l1.16,1.73a6.06,6.06,0,0,1-1.68.87,6.32,6.32,0,0,1-2.14.34,6.94,6.94,0,0,1-2.56-.47A6.38,6.38,0,0,1,65,97.53a5.85,5.85,0,0,1-1.36-2,6.77,6.77,0,0,1-.49-2.63,6.62,6.62,0,0,1,.49-2.58A6.13,6.13,0,0,1,65,88.24a6,6,0,0,1,2-1.35,6.65,6.65,0,0,1,2.55-.48,6.47,6.47,0,0,1,2.16.32,6.28,6.28,0,0,1,1.65.89l-1.16,1.73a4.26,4.26,0,0,0-1.14-.66,4.3,4.3,0,0,0-1.51-.25,4.39,4.39,0,0,0-1.67.31,3.68,3.68,0,0,0-1.34.88,4.17,4.17,0,0,0-.88,1.4,4.9,4.9,0,0,0-.32,1.84,4.85,4.85,0,0,0,.32,1.83,4,4,0,0,0,.89,1.4,3.83,3.83,0,0,0,1.36.89A4.66,4.66,0,0,0,69.63,97.29Z"/><path class="cls-1" d="M75.77,86.62H78V99.11H75.77Z"/><path class="cls-1" d="M80.21,92.88a6.73,6.73,0,0,1,.49-2.6,6.05,6.05,0,0,1,1.35-2,6.23,6.23,0,0,1,2-1.34,7.07,7.07,0,0,1,5.12,0,6.11,6.11,0,0,1,3.41,3.38,6.69,6.69,0,0,1,.49,2.6,6.77,6.77,0,0,1-.49,2.63,6,6,0,0,1-1.36,2,6.23,6.23,0,0,1-2,1.32,7.28,7.28,0,0,1-5.12,0,6.15,6.15,0,0,1-2-1.31,6,6,0,0,1-1.35-2A6.74,6.74,0,0,1,80.21,92.88Zm2.21,0a5.08,5.08,0,0,0,.3,1.78,4.07,4.07,0,0,0,.86,1.4,3.89,3.89,0,0,0,1.33.91,4.7,4.7,0,0,0,1.75.32A4.47,4.47,0,0,0,88.41,97,4,4,0,0,0,89.75,96a4,4,0,0,0,.85-1.4,5.24,5.24,0,0,0,0-3.55,4,4,0,0,0-.85-1.4,4,4,0,0,0-1.34-.92,4.81,4.81,0,0,0-3.5,0,3.91,3.91,0,0,0-1.33.92,4,4,0,0,0-.86,1.41A5.16,5.16,0,0,0,82.42,92.88Z"/><path class="cls-1" d="M101.45,89.39a3.17,3.17,0,0,0-1-.72,3.24,3.24,0,0,0-1.3-.25,2,2,0,0,0-1.4.47A1.5,1.5,0,0,0,97.24,90a1.63,1.63,0,0,0,.1.59,1.18,1.18,0,0,0,.33.49,2.29,2.29,0,0,0,.63.42,8.8,8.8,0,0,0,1,.41,15.55,15.55,0,0,1,1.83.75,5.16,5.16,0,0,1,1.23.82,2.79,2.79,0,0,1,.68,1,3.39,3.39,0,0,1,.22,1.24,4.54,4.54,0,0,1-.2,1.32,2.7,2.7,0,0,1-.69,1.14,3.58,3.58,0,0,1-1.33.81,6,6,0,0,1-2.12.31,6.19,6.19,0,0,1-2.5-.47,6.26,6.26,0,0,1-1.81-1.22L96,96a3.87,3.87,0,0,0,1.37,1,3.94,3.94,0,0,0,1.64.33,2.53,2.53,0,0,0,1.64-.41,1.49,1.49,0,0,0,.46-1.17,1.57,1.57,0,0,0-.1-.6,1.28,1.28,0,0,0-.38-.48,3.19,3.19,0,0,0-.73-.44,12.61,12.61,0,0,0-1.19-.46,7.09,7.09,0,0,1-2.75-1.48A3.07,3.07,0,0,1,95,90a3.67,3.67,0,0,1,.27-1.42,3.26,3.26,0,0,1,.81-1.13,3.43,3.43,0,0,1,1.29-.75,5.31,5.31,0,0,1,1.77-.27,5,5,0,0,1,2.06.39,5.2,5.2,0,0,1,1.5,1Z"/><path class="cls-2" d="M137.52,109.15c0-3.21-1.62-4-2.91-4H131s.39,3.61.91,5.87c.47,2,1.1,2.67,2.7,2.67C136.55,113.68,137.52,112.37,137.52,109.15Zm-17.36-.39c0-5.37,1.76-9.53,6.69-9.53h8.08c3.5,0,6.09,3.4,6.09,9.78s-2.07,10.53-6.78,10.53c-4.11,0-5.23-2.89-6.34-11.21l-.43-3.19c-2.54.07-3.69.66-3.69,4.82a28.28,28.28,0,0,0,1.24,7.53c-1.38.62-3,.43-3.58-.54S120.16,113.6,120.16,108.76Z"/><path class="cls-2" d="M137.52,10c0-3.21-1.62-4-2.91-4H131s.39,3.62.91,5.88c.47,2,1.1,2.67,2.7,2.67C136.55,14.56,137.52,13.25,137.52,10Zm-17.36-.39c0-5.37,1.76-9.54,6.69-9.54h8.08c3.5,0,6.09,3.41,6.09,9.79S139,20.42,134.24,20.42c-4.11,0-5.23-2.89-6.34-11.22L127.47,6c-2.54.06-3.69.66-3.69,4.81A28.18,28.18,0,0,0,125,18.36c-1.38.63-3,.43-3.58-.53S120.16,14.48,120.16,9.64Z"/><path class="cls-2" d="M10.39,55.32c3.21,0,4-1.62,4-2.91V48.8s-3.61.39-5.87.9c-2,.47-2.67,1.1-2.67,2.7C5.86,54.35,7.17,55.32,10.39,55.32ZM10.78,38c5.37,0,9.53,1.77,9.53,6.7v8.07c0,3.51-3.4,6.09-9.78,6.09S0,56.74,0,52c0-4.11,2.89-5.24,11.21-6.35l3.19-.42c-.07-2.54-.66-3.69-4.82-3.69a28.28,28.28,0,0,0-7.53,1.24c-.62-1.38-.43-3,.54-3.58S5.94,38,10.78,38Z"/><path class="cls-2" d="M251.26,55.32c3.21,0,4-1.62,4-2.91V48.8s-3.62.39-5.88.9c-2,.47-2.67,1.1-2.67,2.7C246.73,54.35,248,55.32,251.26,55.32ZM251.65,38c5.37,0,9.54,1.77,9.54,6.7v8.07c0,3.51-3.41,6.09-9.79,6.09S240.87,56.74,240.87,52c0-4.11,2.89-5.24,11.22-6.35l3.18-.42c-.06-2.54-.66-3.69-4.82-3.69a28.16,28.16,0,0,0-7.52,1.24c-.63-1.38-.43-3,.53-3.58S246.81,38,251.65,38Z"/><rect class="cls-3" x="20.32" y="20.31" width="220.55" height="78.81"/><rect class="cls-3" x="10.53" y="9.89" width="240.87" height="98.87"/><rect class="cls-3" width="261.18" height="119.43"/><path class="cls-1" d="M34.49,64.09a19.87,19.87,0,0,0,9.5-1c.62,1.1,1.54,3-.73,4.21-1.55.85-4,1.33-8.27,1.33-8.77,0-14.85-4.15-14.9-14.23-.05-10.3,6.13-14,14.9-14a21.53,21.53,0,0,1,7.73,1.07C45,42.4,44.81,44.62,44,46a19.73,19.73,0,0,0-9.5-1c-5.25.86-6.93,3.89-6.93,9C27.56,59.47,29.24,63.23,34.49,64.09Z"/><path class="cls-4" d="M58.8,65.09c2.89,0,3.89-1.65,3.89-3V58.43s-3.35.4-5.67.93c-2.08.48-2.73,1.12-2.73,2.76C54.29,64,55.51,65.09,58.8,65.09Zm.53-17.74c5.48,0,9.74,1.81,9.74,6.84v8.12c0,3.59-3.48,6.36-10,6.36s-10.89-2.12-10.89-6.92c0-4.21,3.1-5.23,11.59-6.49l2.92-.43c0-2.61-.34-3.78-4.59-3.78a28.69,28.69,0,0,0-7.69,1.27c-.64-1.41-.44-3.11.54-3.66S54.38,47.35,59.33,47.35Z"/><path class="cls-4" d="M86.23,47.9c1.16.43,1.67,1.65,1.24,3.45a27.05,27.05,0,0,0-3.27-.21c-3.16,0-3.85.94-3.85,3.42v9.68A4.06,4.06,0,0,1,76,68.39a8.11,8.11,0,0,1-2.2-.19v-14c0-4.7,2.91-6.87,7.69-6.87A13.72,13.72,0,0,1,86.23,47.9Z"/><path class="cls-4" d="M112.77,47.35a3.66,3.66,0,0,1,1.76.44l-7.09,17.3a4.92,4.92,0,0,1-4.69,3.32,5.2,5.2,0,0,1-5.28-3.32l-6.88-17a6.89,6.89,0,0,1,3.4-.79,4.38,4.38,0,0,1,4.46,2.72l5,13.35,4.79-12.91A4.29,4.29,0,0,1,112.77,47.35Z"/><path class="cls-4" d="M136.22,75.74c-1.16-.44-1.68-1.66-1.24-3.46a26.84,26.84,0,0,0,3.27.21c3.15,0,3.85-.94,3.85-3.42V51.51a4.06,4.06,0,0,1,4.3-4.16,8,8,0,0,1,2.2.19V69.39c0,4.7-2.91,6.88-7.68,6.88A13.94,13.94,0,0,1,136.22,75.74Z"/><path class="cls-4" d="M163.22,65.09c3.28,0,4.1-1.65,4.1-3V58.43s-3.69.4-6,.93c-2.08.48-2.73,1.12-2.73,2.76C158.59,64.11,159.93,65.09,163.22,65.09Zm.4-17.74c5.49,0,9.74,1.81,9.74,6.84v8.25c0,3.58-3.47,6.23-10,6.23s-10.76-2.12-10.76-6.92c0-4.21,2.95-5.36,11.45-6.49l3.26-.43c-.07-2.6-.67-3.78-4.92-3.78a28.69,28.69,0,0,0-7.69,1.27c-.64-1.41-.44-3.11.54-3.66S158.68,47.35,163.62,47.35Z"/><path class="cls-4" d="M190.41,67.88a13.72,13.72,0,0,1-4.7.53c-4.78,0-7.69-2.17-7.69-6.87V39.69a8.11,8.11,0,0,1,2.2-.19,4.06,4.06,0,0,1,4.31,4.15V61.21c0,2.49.69,3.43,3.85,3.43a25.85,25.85,0,0,0,3.27-.22C192.08,66.23,191.57,67.45,190.41,67.88Z"/><path class="cls-4" d="M126.67,65.09c2.89,0,3.89-1.65,3.89-3V58.43s-3.35.4-5.67.93c-2.08.48-2.73,1.12-2.73,2.76C122.16,64,123.38,65.09,126.67,65.09Zm.53-17.74c5.48,0,9.74,1.81,9.74,6.84v8c0,3.58-3.48,6.48-10,6.48s-10.88-2.12-10.88-6.92c0-4.21,3.09-5.23,11.58-6.49l2.92-.43c0-2.61-.34-3.78-4.59-3.78a28.79,28.79,0,0,0-7.69,1.27c-.64-1.41-.44-3.11.54-3.66S122.25,47.35,127.2,47.35Z"/><rect class="cls-5" x="216.98" y="39.44" width="4.95" height="4.88"/><path class="cls-6" d="M206.37,52.36a2.54,2.54,0,0,0,2.54,2.54H217V44.32H206.37Z"/><path class="cls-7" d="M226.77,24V34.53h10.55v-8A2.54,2.54,0,0,0,234.78,24Z"/><rect class="cls-8" x="216.98" y="44.32" width="4.95" height="10.58"/><path class="cls-9" d="M202.63,44.32h3.74V39.44H217V34.53h4.94V24h4.85V20.29H205.16a2.54,2.54,0,0,0-2.54,2.54Z"/><rect class="cls-10" x="221.92" y="23.97" width="4.84" height="10.56"/><rect class="cls-10" x="226.77" y="34.53" width="10.56" height="4.91"/><rect class="cls-11" x="216.98" y="34.53" width="4.95" height="4.91"/><polygon class="cls-12" points="221.93 34.53 221.93 39.44 221.93 39.44 226.77 39.44 226.77 34.53 221.93 34.53"/><polygon class="cls-11" points="221.93 39.44 221.93 44.32 221.93 44.32 226.77 44.32 226.77 39.44 221.93 39.44"/><rect class="cls-8" x="206.37" y="39.44" width="10.61" height="4.88"/><path class="cls-13" d="M238.25,58.39a2.54,2.54,0,0,0,2.54-2.54V34.53h-3.47v4.91H226.77v4.88h-4.85V54.9H217v3.47Z"/><path class="cls-14" d="M234.19,43.83a4.68,4.68,0,0,0-6.92,0l-5.34,5.39-9.87-9.79,9.86-9.83,5.59,5.64a4.83,4.83,0,0,0,6.46,0,27.19,27.19,0,0,0,2.09-2.08l-8.59-8.59a8,8,0,0,0-11.21,0L207,33.85A7.86,7.86,0,0,0,207,45l9.33,9.33a8,8,0,0,0,11.21,0l8.59-8.58Z"/></g></g></svg>