<svg xmlns="http://www.w3.org/2000/svg" viewBox="0 0 223.61 89.09"><defs><style>.cls-1,.cls-2{fill:#243d5a;}.cls-2{fill-rule:evenodd;}.cls-3{fill:#1a6b3d;}.cls-4{fill:#4da9dc;}.cls-5{fill:#634993;}.cls-6{fill:#508f5c;}.cls-7{fill:#dd923d;}.cls-8{fill:#54216d;}.cls-9{fill:#c05f19;}.cls-10{fill:#3c1c5b;}.cls-11{fill:#b2be2c;}.cls-12{fill:#fff;opacity:0.75;}</style></defs><title>Recurso 13</title><g id="Capa_2" data-name="Capa 2"><g id="Capa_1-2" data-name="Capa 1"><path class="cls-1" d="M4.57,76.14h8.7V78.2H6.83v3.27h5.49v2.06H6.83v3.26h6.56v2.07H4.57Z"/><path class="cls-1" d="M17,76.14h4.64a7.24,7.24,0,0,1,2.64.43,5.35,5.35,0,0,1,1.93,1.26,5.18,5.18,0,0,1,1.2,2,8.33,8.33,0,0,1,.41,2.68,8.14,8.14,0,0,1-.39,2.59,5.36,5.36,0,0,1-1.17,2,5.18,5.18,0,0,1-1.94,1.3,7.13,7.13,0,0,1-2.68.46H17Zm2.26,2.06v8.59h2.6a3.59,3.59,0,0,0,1.54-.32,3.21,3.21,0,0,0,1.14-.89,4.24,4.24,0,0,0,.71-1.35,5.88,5.88,0,0,0,.25-1.73,6,6,0,0,0-.23-1.68,3.72,3.72,0,0,0-.69-1.36,3.3,3.3,0,0,0-1.13-.92,3.61,3.61,0,0,0-1.59-.34Z"/><path class="cls-1" d="M39.24,76.14h2.25v8a6.55,6.55,0,0,1-.3,2,4,4,0,0,1-.93,1.57,4.27,4.27,0,0,1-1.58,1,6.26,6.26,0,0,1-2.28.37,6.18,6.18,0,0,1-2.28-.38,4.1,4.1,0,0,1-1.58-1,4,4,0,0,1-.93-1.57,6.14,6.14,0,0,1-.3-2v-8h2.25v8a2.86,2.86,0,0,0,.75,2.2A3,3,0,0,0,36.4,87a2.55,2.55,0,0,0,2.84-2.89Z"/><path class="cls-1" d="M51.55,87a4.22,4.22,0,0,0,1.5-.25,4.55,4.55,0,0,0,1.21-.67l1.18,1.76a6.42,6.42,0,0,1-1.71.89,6.52,6.52,0,0,1-2.18.35,7,7,0,0,1-2.61-.49,6.16,6.16,0,0,1-2.1-1.35,5.91,5.91,0,0,1-1.39-2.06A6.93,6.93,0,0,1,45,82.5a6.73,6.73,0,0,1,.5-2.63,6.48,6.48,0,0,1,1.37-2.09,6,6,0,0,1,2.07-1.37,6.8,6.8,0,0,1,2.6-.49,6,6,0,0,1,3.9,1.24l-1.18,1.76A4.38,4.38,0,0,0,53,78.24,4.24,4.24,0,0,0,51.49,78a4.58,4.58,0,0,0-1.7.3,3.94,3.94,0,0,0-1.36.9,4.15,4.15,0,0,0-.9,1.43,5.46,5.46,0,0,0,0,3.74,4.22,4.22,0,0,0,.91,1.43,4,4,0,0,0,1.38.9A4.51,4.51,0,0,0,51.55,87Z"/><path class="cls-1" d="M69.86,88.86h-2.4l-1-3H61.21l-1,3H57.8l4.57-12.72h2.92Zm-8-5h3.89l-1.94-5.8Z"/><path class="cls-1" d="M77.92,87a4.22,4.22,0,0,0,1.5-.25,4.71,4.71,0,0,0,1.21-.67l1.18,1.76a6.27,6.27,0,0,1-1.71.89,6.56,6.56,0,0,1-2.18.35,7.14,7.14,0,0,1-2.62-.49,6.12,6.12,0,0,1-2.09-1.35,5.91,5.91,0,0,1-1.39-2.06,6.93,6.93,0,0,1-.5-2.69,6.73,6.73,0,0,1,.5-2.63,6.48,6.48,0,0,1,1.37-2.09,5.94,5.94,0,0,1,2.08-1.37,6.71,6.71,0,0,1,2.59-.49,6.43,6.43,0,0,1,2.21.33,6.14,6.14,0,0,1,1.69.91l-1.18,1.76a4.38,4.38,0,0,0-1.17-.68A4.24,4.24,0,0,0,77.86,78a4.61,4.61,0,0,0-1.7.3,3.85,3.85,0,0,0-1.36.9,4.33,4.33,0,0,0-.91,1.43,5.62,5.62,0,0,0,0,3.74,4.4,4.4,0,0,0,.92,1.43,4,4,0,0,0,1.38.9A4.47,4.47,0,0,0,77.92,87Z"/><path class="cls-1" d="M85.27,76.14h2.26V88.86H85.27Z"/><path class="cls-1" d="M90.81,82.52a6.77,6.77,0,0,1,.51-2.65,6.12,6.12,0,0,1,1.37-2.1,6.34,6.34,0,0,1,2.1-1.36,6.78,6.78,0,0,1,2.61-.49,6.85,6.85,0,0,1,2.61.49,6.3,6.3,0,0,1,2.09,1.36,6.1,6.1,0,0,1,1.38,2.08,7,7,0,0,1,.5,2.65,7.12,7.12,0,0,1-.5,2.69,6,6,0,0,1-1.38,2.06A6.12,6.12,0,0,1,100,88.6a7,7,0,0,1-2.61.49,7,7,0,0,1-2.61-.48,5.92,5.92,0,0,1-3.47-3.41A6.88,6.88,0,0,1,90.81,82.52Zm2.26,0a5,5,0,0,0,.31,1.8,4.29,4.29,0,0,0,.88,1.44,3.77,3.77,0,0,0,1.35.92A4.68,4.68,0,0,0,97.4,87a4.45,4.45,0,0,0,1.78-.34,3.86,3.86,0,0,0,1.36-.94,4,4,0,0,0,.87-1.42,5.06,5.06,0,0,0,.31-1.81,4.93,4.93,0,0,0-.31-1.8,3.9,3.9,0,0,0-.87-1.43,4,4,0,0,0-1.36-1A4.63,4.63,0,0,0,97.4,78a4.68,4.68,0,0,0-1.79.32,4,4,0,0,0-1.35,1,4.15,4.15,0,0,0-.88,1.43A5.12,5.12,0,0,0,93.07,82.52ZM98,72.27h2.07l-1.78,2.78H97Z"/><path class="cls-1" d="M109.46,79.19l0,1.22v8.45h-2.25V76.14H110l5.74,9.67,0-1.16V76.14h2.26V88.86H115.2Z"/><path class="cls-1" d="M14.59,44.38a20.25,20.25,0,0,0,9.63-1c.62,1.11,1.56,3-.74,4.27-1.58.86-4,1.34-8.38,1.34C6.21,49,.05,44.81,0,34.6,0,24.16,6.21,20.44,15.1,20.44a21.74,21.74,0,0,1,7.83,1.09c2.3.87,2.12,3.12,1.29,4.52a20.25,20.25,0,0,0-9.63-1c-5.32.87-7,3.94-7,9.12C7.57,39.69,9.27,43.5,14.59,44.38Z"/><path class="cls-2" d="M39.22,45.4c2.93,0,3.94-1.68,3.94-3V38.64s-3.4.4-5.74.94c-2.11.48-2.77,1.14-2.77,2.8C34.65,44.3,35.89,45.4,39.22,45.4Zm.53-18c5.56,0,9.87,1.83,9.87,6.94v8.22C49.62,46.2,46.1,49,39.49,49s-11-2.14-11-7c0-4.26,3.13-5.3,11.73-6.57l3-.44c0-2.64-.34-3.83-4.65-3.83a29,29,0,0,0-7.79,1.29c-.65-1.43-.45-3.15.55-3.71S34.74,27.41,39.75,27.41Z"/><path class="cls-2" d="M67,28c1.18.44,1.7,1.67,1.26,3.5A27.74,27.74,0,0,0,65,31.26c-3.2,0-3.9.95-3.91,3.46v9.8a4.11,4.11,0,0,1-4.36,4.21,8.7,8.7,0,0,1-2.23-.18V34.4c0-4.77,2.95-7,7.79-7A14,14,0,0,1,67,28Z"/><path class="cls-2" d="M93.91,27.41a3.68,3.68,0,0,1,1.78.45L88.5,45.4a5,5,0,0,1-4.74,3.36,5.26,5.26,0,0,1-5.35-3.36l-7-17.19a7,7,0,0,1,3.44-.8c2.52,0,4,1.25,4.52,2.75l5,13.53,4.86-13.07A4.34,4.34,0,0,1,93.91,27.41Z"/><path class="cls-2" d="M117.66,56.17c-1.18-.44-1.7-1.67-1.26-3.5a26.56,26.56,0,0,0,3.32.22c3.19,0,3.9-1,3.9-3.47V31.63A4.12,4.12,0,0,1,128,27.41a7.86,7.86,0,0,1,2.23.2V49.75c0,4.76-2.94,7-7.79,7A13.73,13.73,0,0,1,117.66,56.17Z"/><path class="cls-2" d="M145,45.4c3.33,0,4.15-1.68,4.16-3V38.64s-3.74.4-6.09.94c-2.11.48-2.76,1.14-2.76,2.8C140.33,44.39,141.69,45.4,145,45.4Zm.41-18c5.55,0,9.87,1.83,9.87,6.94v8.36c0,3.63-3.52,6.3-10.13,6.3s-10.9-2.14-10.9-7c0-4.26,3-5.42,11.61-6.57l3.29-.44c-.06-2.63-.67-3.83-5-3.83a29.11,29.11,0,0,0-7.8,1.29c-.65-1.43-.44-3.15.56-3.71S140.42,27.41,145.43,27.41Z"/><path class="cls-2" d="M172.57,48.22a14,14,0,0,1-4.76.54c-4.84,0-7.79-2.21-7.79-7V19.65a8.26,8.26,0,0,1,2.23-.19,4.12,4.12,0,0,1,4.36,4.21V41.46c0,2.51.7,3.47,3.9,3.47a26.3,26.3,0,0,0,3.31-.22C174.26,46.54,173.74,47.78,172.57,48.22Z"/><path class="cls-2" d="M108,45.4c2.93,0,3.94-1.68,3.94-3V38.64s-3.4.4-5.74.94c-2.11.48-2.77,1.14-2.77,2.8C103.42,44.3,104.65,45.4,108,45.4Zm.53-18c5.56,0,9.87,1.83,9.87,6.94v8.1c0,3.63-3.52,6.56-10.13,6.56s-11-2.14-11-7c0-4.26,3.14-5.3,11.74-6.57l3-.44c0-2.64-.35-3.83-4.65-3.83a29,29,0,0,0-7.79,1.29C98.84,31,99,29.3,100,28.74S103.51,27.41,108.52,27.41Z"/><rect class="cls-3" x="199.49" y="19.4" width="5.01" height="4.95"/><path class="cls-4" d="M188.74,32.49a2.58,2.58,0,0,0,2.57,2.58h8.18V24.34H188.74Z"/><path class="cls-5" d="M209.41,3.73V14.42h10.7V6.3a2.58,2.58,0,0,0-2.58-2.57Z"/><rect class="cls-6" x="199.49" y="24.34" width="5.01" height="10.73"/><path class="cls-7" d="M185,24.34h3.79V19.4h10.75v-5h5V3.73h4.91V0h-21.9A2.57,2.57,0,0,0,185,2.57Z"/><rect class="cls-8" x="204.5" y="3.73" width="4.91" height="10.7"/><rect class="cls-8" x="209.41" y="14.42" width="10.7" height="4.97"/><rect class="cls-9" x="199.49" y="14.42" width="5.01" height="4.97"/><polygon class="cls-10" points="204.5 14.42 204.5 19.4 204.5 19.4 209.41 19.4 209.41 14.42 204.5 14.42"/><polygon class="cls-9" points="204.5 19.4 204.5 24.34 204.5 24.34 209.41 24.34 209.41 19.4 204.5 19.4"/><rect class="cls-6" x="188.74" y="19.4" width="10.75" height="4.95"/><path class="cls-11" d="M221,38.6A2.57,2.57,0,0,0,223.61,36V14.42h-3.5v5h-10.7v4.94H204.5V35.07h-5v3.5Z"/><path class="cls-12" d="M216.93,23.85a4.74,4.74,0,0,0-7,0l-5.4,5.46-10-9.92,10-10,5.66,5.72a4.91,4.91,0,0,0,6.55,0c1.64-1.54,2.12-2.11,2.12-2.11l-8.71-8.71a8.06,8.06,0,0,0-11.36,0l-9.41,9.41a8,8,0,0,0,0,11.27l9.46,9.46a7.91,7.91,0,0,0,5.68,2.34,8,8,0,0,0,5.68-2.34l8.7-8.7Z"/></g></g></svg>