<svg xmlns="http://www.w3.org/2000/svg" viewBox="0 0 265.1 143.56"><defs><style>.cls-1,.cls-2{fill:#243d5a;}.cls-2{fill-rule:evenodd;}.cls-3{fill:#3f6f48;}.cls-4{fill:#6eace0;}.cls-5{fill:#5b4691;}.cls-6{fill:#51874d;}.cls-7{fill:#d78029;}.cls-8{fill:#582a65;}.cls-9{fill:#b36022;}.cls-10{fill:#362551;}.cls-11{fill:#95ba3a;}.cls-12{fill:#fff;opacity:0.75;}.cls-13{fill:none;}</style></defs><title>Recurso 11</title><g id="Capa_2" data-name="Capa 2"><g id="Capa_1-2" data-name="Capa 1"><path class="cls-1" d="M35.47,66a20,20,0,0,0,9.61-1c.63,1.12,1.56,3-.73,4.26-1.58.87-4,1.35-8.37,1.35-8.87,0-15-4.19-15.07-14.39C20.86,45.82,27.11,42.1,36,42.1a21.44,21.44,0,0,1,7.81,1.09c2.29.87,2.12,3.11,1.29,4.51a20,20,0,0,0-9.61-1c-5.31.87-7,3.94-7,9.1C28.47,61.31,30.16,65.12,35.47,66Z"/><path class="cls-2" d="M60.06,67C63,67,64,65.33,64,64V60.26s-3.39.41-5.73.94c-2.11.49-2.76,1.14-2.76,2.8C55.5,65.91,56.73,67,60.06,67Zm.53-17.94c5.55,0,9.85,1.82,9.85,6.92v8.21c0,3.63-3.51,6.43-10.11,6.43s-11-2.14-11-7c0-4.25,3.13-5.29,11.71-6.56l3-.44c0-2.64-.34-3.81-4.64-3.81a29.38,29.38,0,0,0-7.78,1.27c-.65-1.42-.45-3.14.55-3.69S55.59,49.06,60.59,49.06Z"/><path class="cls-2" d="M87.8,49.61c1.17.44,1.69,1.67,1.25,3.5a26.3,26.3,0,0,0-3.31-.22c-3.19,0-3.89,1-3.89,3.47v9.78a4.11,4.11,0,0,1-4.36,4.2,8.21,8.21,0,0,1-2.22-.19V56c0-4.76,2.94-7,7.78-7A14,14,0,0,1,87.8,49.61Z"/><path class="cls-2" d="M114.64,49.06a3.74,3.74,0,0,1,1.78.44L109.25,67a5,5,0,0,1-4.74,3.36A5.24,5.24,0,0,1,99.17,67l-7-17.14a7,7,0,0,1,3.44-.8c2.52,0,4,1.24,4.52,2.75l5,13.5L110,52.26A4.34,4.34,0,0,1,114.64,49.06Z"/><path class="cls-2" d="M138.35,77.77c-1.17-.45-1.69-1.67-1.25-3.5a26.3,26.3,0,0,0,3.31.22c3.19,0,3.89-1,3.89-3.47V53.26a4.1,4.1,0,0,1,4.35-4.2,8.26,8.26,0,0,1,2.23.19v22.1c0,4.75-2.94,7-7.78,7A14,14,0,0,1,138.35,77.77Z"/><path class="cls-2" d="M165.67,67c3.31,0,4.14-1.67,4.14-3V60.26s-3.73.41-6.07.94c-2.11.49-2.76,1.14-2.76,2.8C161,66,162.34,67,165.67,67Zm.4-17.94c5.55,0,9.85,1.82,9.85,6.92v8.34c0,3.62-3.51,6.3-10.11,6.3s-10.88-2.14-10.88-7c0-4.25,3-5.41,11.59-6.56l3.29-.44c-.07-2.63-.68-3.81-5-3.81a29.38,29.38,0,0,0-7.78,1.27c-.65-1.42-.44-3.14.55-3.69S161.07,49.06,166.07,49.06Z"/><path class="cls-2" d="M193.16,69.82a14,14,0,0,1-4.75.54c-4.84,0-7.78-2.19-7.78-7V41.31a8.26,8.26,0,0,1,2.23-.19,4.1,4.1,0,0,1,4.35,4.2V63.08c0,2.51.7,3.46,3.9,3.46a27.46,27.46,0,0,0,3.3-.21C194.85,68.15,194.33,69.38,193.16,69.82Z"/><path class="cls-2" d="M128.7,67c2.92,0,3.93-1.67,3.93-3V60.26s-3.39.41-5.73.94c-2.11.49-2.76,1.14-2.76,2.8C124.14,65.91,125.37,67,128.7,67Zm.53-17.94c5.55,0,9.85,1.82,9.85,6.92v8.09c0,3.62-3.51,6.55-10.11,6.55s-11-2.14-11-7c0-4.25,3.14-5.29,11.72-6.56l2.95-.44c0-2.64-.34-3.81-4.64-3.81a29.38,29.38,0,0,0-7.78,1.27c-.65-1.42-.44-3.14.55-3.69S124.23,49.06,129.23,49.06Z"/><rect class="cls-3" x="220.03" y="41.06" width="5" height="4.94"/><path class="cls-4" d="M209.3,54.12a2.58,2.58,0,0,0,2.57,2.58H220V46H209.3Z"/><path class="cls-5" d="M229.93,25.41V36.09h10.68V28A2.57,2.57,0,0,0,238,25.41Z"/><rect class="cls-6" x="220.03" y="46" width="5" height="10.7"/><path class="cls-7" d="M205.52,46h3.78V41.06H220v-5h5V25.41h4.9V21.69H208.08a2.57,2.57,0,0,0-2.57,2.57Z"/><rect class="cls-8" x="225.03" y="25.41" width="4.9" height="10.68"/><rect class="cls-8" x="229.93" y="36.09" width="10.68" height="4.97"/><rect class="cls-9" x="220.03" y="36.09" width="5" height="4.97"/><polygon class="cls-10" points="225.03 36.09 225.03 41.06 225.03 41.06 229.93 41.06 229.93 36.09 225.03 36.09"/><polygon class="cls-9" points="225.03 41.06 225.03 46 225.03 46 229.93 46 229.93 41.06 225.03 41.06"/><rect class="cls-6" x="209.3" y="41.06" width="10.73" height="4.94"/><path class="cls-11" d="M241.54,60.22a2.57,2.57,0,0,0,2.57-2.56V36.09h-3.5v5H229.93V46H225V56.7h-5v3.5Z"/><path class="cls-12" d="M237.44,45.5a4.75,4.75,0,0,0-7,0L225,51l-10-9.9,10-9.94,5.65,5.7a4.88,4.88,0,0,0,6.54,0c1.64-1.54,2.11-2.1,2.11-2.1L230.64,26a8.06,8.06,0,0,0-11.34,0l-9.39,9.38a8,8,0,0,0,0,11.26l9.45,9.44A7.87,7.87,0,0,0,225,58.43a8,8,0,0,0,5.68-2.33l8.68-8.68Z"/><g id="Capa_1-3" data-name="Capa 1"><path class="cls-13" d="M254.84,56.44c3.32,0,4.15-1.68,4.15-3V49.69s-3.73.41-6.07,1c-2.11.48-2.76,1.13-2.76,2.79,0,2,1.36,3,4.68,3m.4-17.95c5.55,0,9.86,1.83,9.86,6.92v8.34c0,3.62-3.52,6.3-10.12,6.3s-10.87-2.14-10.87-7c0-4.25,3-5.42,11.58-6.56l3.29-.44c-.06-2.62-.68-3.81-5-3.81a29.17,29.17,0,0,0-7.78,1.28c-.64-1.43-.44-3.15.55-3.7s3.46-1.33,8.46-1.33"/><path class="cls-13" d="M10.73,56.44c3.32,0,4.15-1.68,4.15-3V49.69s-3.73.41-6.07,1C6.7,51.12,6,51.77,6,53.43c0,2,1.37,3,4.69,3m.4-17.95c5.55,0,9.86,1.83,9.86,6.92v8.34c0,3.62-3.52,6.3-10.12,6.3S0,57.91,0,53.05c0-4.25,3-5.42,11.58-6.56l3.29-.44c-.07-2.62-.68-3.81-5-3.81a29.17,29.17,0,0,0-7.78,1.28c-.65-1.43-.44-3.15.55-3.7s3.46-1.33,8.46-1.33"/><path class="cls-13" d="M139.85,10.94c0-3.31-1.66-4.15-3-4.15h-3.73s.39,3.73.92,6.07c.48,2.11,1.13,2.77,2.79,2.77,2,0,3-1.35,3-4.68m-17.94-.45c0-5.55,1.85-9.85,7-9.84l8.34,0c3.62,0,6.28,3.54,6.26,10.13s-2.17,10.87-7,10.85c-4.25,0-5.41-3-6.52-11.6l-.43-3.29c-2.62.06-3.82.67-3.83,5a29.33,29.33,0,0,0,1.25,7.78c-1.42.65-3.14.44-3.69-.56s-1.32-3.46-1.3-8.46"/><path class="cls-13" d="M140,132.84c0-3.31-1.67-4.15-3-4.15h-3.73s.39,3.73.92,6.07c.48,2.11,1.13,2.77,2.78,2.77,2,0,3-1.35,3-4.68m-17.94-.45c0-5.55,1.85-9.85,6.94-9.84l8.35,0c3.61,0,6.28,3.54,6.26,10.13s-2.17,10.87-7,10.85c-4.26,0-5.41-3-6.52-11.6l-.44-3.29c-2.62.06-3.81.67-3.83,5a29.13,29.13,0,0,0,1.26,7.78c-1.42.65-3.14.44-3.69-.56s-1.32-3.46-1.3-8.46"/><rect class="cls-13" x="21.17" y="21.77" width="222.94" height="100.79"/><rect class="cls-13" x="10.49" y="11.16" width="244.11" height="121.83"/><rect class="cls-13" x="0.61" width="264.48" height="142.55"/><path class="cls-1" d="M27.49,91.93a3.09,3.09,0,0,0-1-.73A3.29,3.29,0,0,0,25.15,91a2,2,0,0,0-1.42.47,1.54,1.54,0,0,0-.49,1.16,1.63,1.63,0,0,0,.1.59,1.21,1.21,0,0,0,.33.5,2.53,2.53,0,0,0,.64.42,8.36,8.36,0,0,0,1,.41,15.18,15.18,0,0,1,1.85.76,5,5,0,0,1,1.23.83,2.8,2.8,0,0,1,.7,1,3.45,3.45,0,0,1,.21,1.25,4.55,4.55,0,0,1-.19,1.33,2.86,2.86,0,0,1-.7,1.15,3.59,3.59,0,0,1-1.34.82A6.19,6.19,0,0,1,25,102a6,6,0,0,1-2.52-.48,6.31,6.31,0,0,1-1.84-1.23l1.33-1.66a3.88,3.88,0,0,0,1.39,1,4.17,4.17,0,0,0,1.66.33,2.48,2.48,0,0,0,1.65-.42,1.52,1.52,0,0,0,.47-1.18,1.57,1.57,0,0,0-.11-.6,1.23,1.23,0,0,0-.38-.49,3.19,3.19,0,0,0-.73-.44,13,13,0,0,0-1.21-.47,7.07,7.07,0,0,1-2.77-1.5A3.06,3.06,0,0,1,21,92.52a3.76,3.76,0,0,1,.28-1.43A3.3,3.3,0,0,1,22.09,90a3.68,3.68,0,0,1,1.31-.76,5.41,5.41,0,0,1,1.78-.27,5,5,0,0,1,2.09.4,5.4,5.4,0,0,1,1.52,1Z"/><path class="cls-1" d="M30.87,95.46a6.85,6.85,0,0,1,.5-2.63,6.11,6.11,0,0,1,3.44-3.42,7.06,7.06,0,0,1,5.17,0,6.13,6.13,0,0,1,3.44,3.41,6.79,6.79,0,0,1,.49,2.62,6.92,6.92,0,0,1-.49,2.66A6,6,0,0,1,40,101.48a6.9,6.9,0,0,1-2.59.48,7.08,7.08,0,0,1-2.58-.47,6,6,0,0,1-2.07-1.32,6.14,6.14,0,0,1-1.37-2.06A6.84,6.84,0,0,1,30.87,95.46Zm2.24,0a5.17,5.17,0,0,0,.3,1.79,4.19,4.19,0,0,0,.87,1.41,3.65,3.65,0,0,0,1.35.92,4.82,4.82,0,0,0,3.53,0,3.9,3.9,0,0,0,1.35-.92,4.16,4.16,0,0,0,.86-1.42,5.32,5.32,0,0,0,0-3.58,4.16,4.16,0,0,0-.86-1.42,3.9,3.9,0,0,0-1.35-.92,4.75,4.75,0,0,0-3.53,0,3.9,3.9,0,0,0-1.35.92,4.29,4.29,0,0,0-.87,1.43A5.23,5.23,0,0,0,33.11,95.46Z"/><path class="cls-1" d="M46.16,89.14H48.4V99.69h5.36v2h-7.6Z"/><path class="cls-1" d="M63.06,89.14h2.23V97a6.33,6.33,0,0,1-.3,2,3.92,3.92,0,0,1-.91,1.56,4.3,4.3,0,0,1-1.57,1,6.38,6.38,0,0,1-2.26.36,6.12,6.12,0,0,1-2.26-.37,4.45,4.45,0,0,1-1.57-1A4.06,4.06,0,0,1,55.5,99a6.3,6.3,0,0,1-.29-2V89.14h2.23V97a2.82,2.82,0,0,0,.74,2.18A2.83,2.83,0,0,0,63.06,97Z"/><path class="cls-1" d="M74.17,99.91a4.2,4.2,0,0,0,1.49-.26A4.29,4.29,0,0,0,76.85,99L78,100.73a6.29,6.29,0,0,1-1.69.89,6.7,6.7,0,0,1-2.16.34,6.81,6.81,0,0,1-2.58-.48,6.38,6.38,0,0,1-2.09-1.33,6.2,6.2,0,0,1-1.37-2.05,6.93,6.93,0,0,1-.5-2.66,6.73,6.73,0,0,1,.5-2.6,6.26,6.26,0,0,1,1.36-2.07,5.88,5.88,0,0,1,2.05-1.36,6.62,6.62,0,0,1,2.58-.49,6.56,6.56,0,0,1,2.18.32,6.74,6.74,0,0,1,1.67.9L76.8,91.89A4.1,4.1,0,0,0,74.12,91a4.46,4.46,0,0,0-1.69.31,3.74,3.74,0,0,0-1.35.89,4.24,4.24,0,0,0-.89,1.41,5,5,0,0,0-.32,1.86,5,5,0,0,0,.32,1.85,4.21,4.21,0,0,0,.9,1.42,3.74,3.74,0,0,0,1.37.89A4.81,4.81,0,0,0,74.17,99.91Z"/><path class="cls-1" d="M80.36,89.14H82.6v12.6H80.36Z"/><path class="cls-1" d="M84.85,95.46a6.84,6.84,0,0,1,.49-2.63,6.09,6.09,0,0,1,1.37-2.07,6.29,6.29,0,0,1,2.07-1.35,7.06,7.06,0,0,1,5.17,0A6.09,6.09,0,0,1,96,90.76a6,6,0,0,1,1.37,2.06,6.79,6.79,0,0,1,.5,2.62,6.93,6.93,0,0,1-.5,2.66A6.05,6.05,0,0,1,96,100.15,6.19,6.19,0,0,1,94,101.48a6.88,6.88,0,0,1-2.58.48,7.1,7.1,0,0,1-2.59-.47,6.21,6.21,0,0,1-2.07-1.32,6.14,6.14,0,0,1-1.37-2.06A6.84,6.84,0,0,1,84.85,95.46Zm2.23,0a5,5,0,0,0,.31,1.79,4,4,0,0,0,.86,1.41,3.73,3.73,0,0,0,1.35.92,4.58,4.58,0,0,0,1.77.33,4.49,4.49,0,0,0,1.76-.34,3.9,3.9,0,0,0,1.35-.92,4.18,4.18,0,0,0,.87-1.42,5.32,5.32,0,0,0,0-3.58,4.18,4.18,0,0,0-.87-1.42,3.9,3.9,0,0,0-1.35-.92A4.32,4.32,0,0,0,91.37,91a4.4,4.4,0,0,0-1.77.34,4,4,0,0,0-1.35.92,4.11,4.11,0,0,0-.86,1.43A5,5,0,0,0,87.08,95.46Z"/><path class="cls-1" d="M102.34,92.16l0,1.21v8.37h-2.23V89.14h2.68l5.69,9.58,0-1.16V89.14h2.23v12.6H108Z"/><path class="cls-1" d="M113.59,89.14h8.61v2h-6.37v3.22h5.43v2.06h-5.43v3.22h6.5v2h-8.74Z"/><path class="cls-1" d="M131.19,91.93a3.09,3.09,0,0,0-1-.73,3.29,3.29,0,0,0-1.31-.25,2,2,0,0,0-1.42.47,1.54,1.54,0,0,0-.49,1.16,1.63,1.63,0,0,0,.1.59,1.21,1.21,0,0,0,.33.5,2.53,2.53,0,0,0,.64.42,8.36,8.36,0,0,0,1,.41,15.18,15.18,0,0,1,1.85.76,5,5,0,0,1,1.23.83,2.8,2.8,0,0,1,.7,1,3.45,3.45,0,0,1,.21,1.25,4.25,4.25,0,0,1-.2,1.33,2.73,2.73,0,0,1-.69,1.15,3.59,3.59,0,0,1-1.34.82,6.19,6.19,0,0,1-2.14.32,6,6,0,0,1-2.52-.48,6.31,6.31,0,0,1-1.84-1.23l1.33-1.66a3.88,3.88,0,0,0,1.39,1,4.16,4.16,0,0,0,1.65.33,2.49,2.49,0,0,0,1.66-.42,1.52,1.52,0,0,0,.47-1.18,1.57,1.57,0,0,0-.11-.6,1.23,1.23,0,0,0-.38-.49,3.19,3.19,0,0,0-.73-.44,13,13,0,0,0-1.21-.47,7.07,7.07,0,0,1-2.77-1.5,3.06,3.06,0,0,1-.91-2.32,3.76,3.76,0,0,1,.28-1.43,3.3,3.3,0,0,1,.81-1.14,3.68,3.68,0,0,1,1.31-.76,5.41,5.41,0,0,1,1.78-.27,5,5,0,0,1,2.09.4,5.2,5.2,0,0,1,1.51,1Z"/><path class="cls-1" d="M139.35,89.14h4.59a7.29,7.29,0,0,1,2.61.43,5.18,5.18,0,0,1,1.92,1.24,5.32,5.32,0,0,1,1.19,2,8.82,8.82,0,0,1,0,5.22,5.28,5.28,0,0,1-1.16,2,5.14,5.14,0,0,1-1.91,1.28,7.06,7.06,0,0,1-2.66.46h-4.59Zm2.23,2v8.5h2.57a3.59,3.59,0,0,0,1.54-.32,3.11,3.11,0,0,0,1.12-.88,3.89,3.89,0,0,0,.7-1.34,5.48,5.48,0,0,0,.25-1.71,6.07,6.07,0,0,0-.23-1.67,3.88,3.88,0,0,0-.67-1.35,3.22,3.22,0,0,0-1.13-.9,3.54,3.54,0,0,0-1.58-.33Z"/><path class="cls-1" d="M152.4,89.14H161v2h-6.37v3.22h5.44v2.06h-5.44v3.22h6.5v2H152.4Z"/><path class="cls-1" d="M27.15,119.92a4.14,4.14,0,0,0,1.48-.26,4.35,4.35,0,0,0,1.2-.66L31,120.75a6.27,6.27,0,0,1-1.69.88,6.44,6.44,0,0,1-2.16.34,6.9,6.9,0,0,1-2.59-.48,6.34,6.34,0,0,1-2.08-1.33,6,6,0,0,1-1.38-2,6.92,6.92,0,0,1-.49-2.66,6.73,6.73,0,0,1,.49-2.6,6.42,6.42,0,0,1,1.36-2.07,5.93,5.93,0,0,1,2.06-1.36,6.35,6.35,0,0,1,6.43.74l-1.17,1.74a4.16,4.16,0,0,0-2.69-.92,4.64,4.64,0,0,0-1.68.31,3.74,3.74,0,0,0-1.35.89,4,4,0,0,0-.89,1.42,5,5,0,0,0-.33,1.85,5,5,0,0,0,.33,1.86,4,4,0,0,0,.9,1.41,3.74,3.74,0,0,0,1.37.89A4.73,4.73,0,0,0,27.15,119.92Z"/><path class="cls-1" d="M32.17,115.47a6.85,6.85,0,0,1,.5-2.63A6.06,6.06,0,0,1,34,110.77a6.23,6.23,0,0,1,2.08-1.35,7,7,0,0,1,5.16,0,6.23,6.23,0,0,1,2.08,1.35,6.12,6.12,0,0,1,1.36,2.06,6.79,6.79,0,0,1,.5,2.62,6.93,6.93,0,0,1-.5,2.66,6.07,6.07,0,0,1-1.36,2,6.34,6.34,0,0,1-2.08,1.33,6.84,6.84,0,0,1-2.58.48,7,7,0,0,1-2.58-.47,5.89,5.89,0,0,1-3.44-3.38A6.84,6.84,0,0,1,32.17,115.47Zm2.23,0a5.17,5.17,0,0,0,.31,1.79,4,4,0,0,0,.86,1.41,3.77,3.77,0,0,0,1.36.92,4.49,4.49,0,0,0,1.76.33,4.4,4.4,0,0,0,1.77-.34,4.1,4.1,0,0,0,1.35-.92,4.16,4.16,0,0,0,.86-1.42,5.32,5.32,0,0,0,0-3.58,4.16,4.16,0,0,0-.86-1.42,4.1,4.1,0,0,0-1.35-.92,4.4,4.4,0,0,0-1.77-.34,4.32,4.32,0,0,0-1.76.34,4,4,0,0,0-1.36.92,4.2,4.2,0,0,0-.86,1.43A5.23,5.23,0,0,0,34.4,115.47Z"/><path class="cls-1" d="M54,118.3l.33,1,.32-1,3.17-9.15h3.33v12.6H58.88v-8.91l0-1.26-3.56,10.17H53.21l-3.57-10.17,0,1.28v8.89H47.46v-12.6h3.33Z"/><path class="cls-1" d="M71.85,109.15h2.23V117a6.31,6.31,0,0,1-.3,2,3.94,3.94,0,0,1-.92,1.56,4.17,4.17,0,0,1-1.56,1A6.38,6.38,0,0,1,69,122a6.12,6.12,0,0,1-2.26-.37,4.23,4.23,0,0,1-1.57-1,4.1,4.1,0,0,1-.92-1.55,6.34,6.34,0,0,1-.3-2v-7.89h2.24v7.9a2.8,2.8,0,0,0,.74,2.18,3.43,3.43,0,0,0,4.15,0,2.87,2.87,0,0,0,.73-2.16Z"/><path class="cls-1" d="M79.16,112.17l0,1.21v8.37H77v-12.6h2.68l5.7,9.58,0-1.15v-8.43h2.23v12.6H84.85Z"/><path class="cls-1" d="M90.41,109.15h2.24v12.6H90.41Z"/><path class="cls-1" d="M101.53,119.92a4.14,4.14,0,0,0,1.48-.26,4.35,4.35,0,0,0,1.2-.66l1.17,1.75a6.27,6.27,0,0,1-1.69.88,6.44,6.44,0,0,1-2.16.34,6.9,6.9,0,0,1-2.59-.48,6.34,6.34,0,0,1-2.08-1.33,6,6,0,0,1-1.38-2,6.92,6.92,0,0,1-.49-2.66,6.73,6.73,0,0,1,.49-2.6,6.42,6.42,0,0,1,1.36-2.07,5.93,5.93,0,0,1,2.06-1.36,6.35,6.35,0,0,1,6.43.74l-1.17,1.74a4.16,4.16,0,0,0-2.69-.92,4.64,4.64,0,0,0-1.68.31,3.74,3.74,0,0,0-1.35.89,4,4,0,0,0-.89,1.42,5,5,0,0,0-.33,1.85,5,5,0,0,0,.33,1.86,4,4,0,0,0,.9,1.41,3.74,3.74,0,0,0,1.37.89A4.73,4.73,0,0,0,101.53,119.92Z"/><path class="cls-1" d="M118.58,121.75H116.2l-1-2.93H110l-1,2.93h-2.38l4.52-12.6h2.9Zm-7.91-4.91h3.86l-1.93-5.73Z"/><path class="cls-1" d="M125.48,119.92a4.14,4.14,0,0,0,1.48-.26,4.35,4.35,0,0,0,1.2-.66l1.17,1.75a6.27,6.27,0,0,1-1.69.88,6.44,6.44,0,0,1-2.16.34,6.9,6.9,0,0,1-2.59-.48,6.44,6.44,0,0,1-2.08-1.33,6.1,6.1,0,0,1-1.37-2,6.93,6.93,0,0,1-.5-2.66,6.73,6.73,0,0,1,.5-2.6,6.26,6.26,0,0,1,1.36-2.07,5.88,5.88,0,0,1,2-1.36,7.28,7.28,0,0,1,4.76-.17,6.46,6.46,0,0,1,1.67.91l-1.17,1.74a4.1,4.1,0,0,0-2.69-.92,4.64,4.64,0,0,0-1.68.31,3.74,3.74,0,0,0-1.35.89,4,4,0,0,0-.89,1.42,5,5,0,0,0-.33,1.85,5,5,0,0,0,.33,1.86,4,4,0,0,0,.9,1.41,3.74,3.74,0,0,0,1.37.89A4.81,4.81,0,0,0,125.48,119.92Z"/><path class="cls-1" d="M131.67,109.15h2.24v12.6h-2.24Z"/><path class="cls-1" d="M136.09,115.47a6.84,6.84,0,0,1,.49-2.63,6.11,6.11,0,0,1,3.44-3.42,7.06,7.06,0,0,1,5.17,0,6.13,6.13,0,0,1,3.44,3.41,6.79,6.79,0,0,1,.5,2.62,6.93,6.93,0,0,1-.5,2.66,6.1,6.1,0,0,1-1.37,2,6.19,6.19,0,0,1-2.07,1.33,6.88,6.88,0,0,1-2.58.48,7.1,7.1,0,0,1-2.59-.47,6,6,0,0,1-2.07-1.32,6.14,6.14,0,0,1-1.37-2.06A6.84,6.84,0,0,1,136.09,115.47Zm2.23,0a5,5,0,0,0,.31,1.79,4,4,0,0,0,.86,1.41,3.65,3.65,0,0,0,1.35.92,4.58,4.58,0,0,0,1.77.33,4.38,4.38,0,0,0,1.76-.34,3.9,3.9,0,0,0,1.35-.92,4.34,4.34,0,0,0,.87-1.42,5.49,5.49,0,0,0,0-3.58,4.34,4.34,0,0,0-.87-1.42,3.9,3.9,0,0,0-1.35-.92,4.75,4.75,0,0,0-3.53,0,3.9,3.9,0,0,0-1.35.92,4.2,4.2,0,0,0-.86,1.43A5,5,0,0,0,138.32,115.47Zm4.86-10.14h2.06l-1.77,2.74h-1.28Z"/><path class="cls-1" d="M153.47,112.17l0,1.21v8.37h-2.23v-12.6H154l5.69,9.58,0-1.15v-8.43h2.23v12.6h-2.68Z"/></g></g></g></svg>