<svg xmlns="http://www.w3.org/2000/svg" viewBox="0 0 259.68 121.03"><defs><style>.cls-1,.cls-2{fill:#243d5a;}.cls-2{fill-rule:evenodd;}.cls-3{fill:#3f6f48;}.cls-4{fill:#6eace0;}.cls-5{fill:#5b4691;}.cls-6{fill:#51874d;}.cls-7{fill:#d78029;}.cls-8{fill:#582a65;}.cls-9{fill:#b36022;}.cls-10{fill:#362551;}.cls-11{fill:#95ba3a;}.cls-12{fill:#fff;opacity:0.75;}.cls-13{fill:none;}</style></defs><title>Recurso 12</title><g id="Capa_2" data-name="Capa 2"><g id="Capa_1-2" data-name="Capa 1"><path class="cls-1" d="M34.71,64.54a19.81,19.81,0,0,0,9.42-1c.61,1.09,1.52,2.93-.72,4.17-1.55.85-3.93,1.32-8.2,1.32C26.52,69.07,20.5,65,20.45,55c-.05-10.21,6.07-13.85,14.76-13.85a21.15,21.15,0,0,1,7.66,1.07c2.24.85,2.07,3,1.26,4.42a19.68,19.68,0,0,0-9.42-1c-5.2.85-6.86,3.85-6.86,8.91C27.85,60,29.51,63.68,34.71,64.54Z"/><path class="cls-2" d="M58.79,65.53c2.87,0,3.86-1.64,3.86-3V58.92s-3.32.4-5.61.93c-2.07.47-2.71,1.11-2.71,2.73C54.33,64.46,55.54,65.53,58.79,65.53ZM59.32,48C64.75,48,69,49.74,69,54.73v8c0,3.55-3.45,6.3-9.91,6.3S48.28,67,48.28,62.21c0-4.17,3.07-5.18,11.47-6.42l2.9-.44c0-2.58-.33-3.73-4.55-3.73a28.66,28.66,0,0,0-7.62,1.25c-.63-1.39-.43-3.08.54-3.62S54.42,48,59.32,48Z"/><path class="cls-2" d="M86,48.49c1.15.43,1.66,1.64,1.23,3.43A25.26,25.26,0,0,0,84,51.7c-3.13,0-3.81.94-3.82,3.4v9.58a4,4,0,0,1-4.26,4.12,7.93,7.93,0,0,1-2.18-.19V54.77c0-4.65,2.88-6.8,7.62-6.8A13.78,13.78,0,0,1,86,48.49Z"/><path class="cls-2" d="M112.27,48a3.64,3.64,0,0,1,1.74.43l-7,17.15a4.84,4.84,0,0,1-4.64,3.28,5.14,5.14,0,0,1-5.23-3.28l-6.82-16.8A6.85,6.85,0,0,1,93.66,48a4.34,4.34,0,0,1,4.42,2.69L103,63.87l4.75-12.79A4.24,4.24,0,0,1,112.27,48Z"/><path class="cls-2" d="M135.49,76.07c-1.15-.43-1.65-1.64-1.23-3.43a25.26,25.26,0,0,0,3.24.22c3.13,0,3.82-.94,3.82-3.4V52.07A4,4,0,0,1,145.58,48a7.93,7.93,0,0,1,2.18.19V69.79c0,4.65-2.88,6.8-7.61,6.8A13.81,13.81,0,0,1,135.49,76.07Z"/><path class="cls-2" d="M162.25,65.53c3.25,0,4.06-1.64,4.06-3V58.92s-3.66.4-5.95.93c-2.06.47-2.7,1.11-2.7,2.73C157.66,64.55,159,65.53,162.25,65.53ZM162.64,48c5.44,0,9.65,1.79,9.65,6.78V62.9c0,3.55-3.44,6.17-9.9,6.17s-10.66-2.1-10.66-6.86c0-4.17,2.92-5.3,11.35-6.42l3.23-.44c-.07-2.57-.67-3.73-4.88-3.73a28.66,28.66,0,0,0-7.62,1.25c-.64-1.39-.44-3.08.54-3.62S157.74,48,162.64,48Z"/><path class="cls-2" d="M189.18,68.29a13.81,13.81,0,0,1-4.66.52c-4.73,0-7.61-2.14-7.61-6.8V40.36a7.93,7.93,0,0,1,2.18-.19,4,4,0,0,1,4.26,4.12V61.68c0,2.47.69,3.39,3.82,3.39a26.44,26.44,0,0,0,3.24-.21C190.83,66.65,190.33,67.86,189.18,68.29Z"/><path class="cls-2" d="M126,65.53c2.86,0,3.85-1.64,3.85-3V58.92s-3.32.4-5.62.93c-2.06.47-2.7,1.11-2.7,2.73C121.57,64.46,122.78,65.53,126,65.53ZM126.56,48c5.43,0,9.65,1.79,9.65,6.78v7.92c0,3.55-3.45,6.42-9.91,6.42s-10.78-2.1-10.78-6.86c0-4.17,3.07-5.18,11.47-6.42l2.9-.44c0-2.58-.34-3.73-4.55-3.73a28.66,28.66,0,0,0-7.62,1.25c-.63-1.39-.43-3.08.54-3.62S121.66,48,126.56,48Z"/><rect class="cls-3" x="215.5" y="40.11" width="4.9" height="4.84"/><path class="cls-4" d="M205,52.91a2.52,2.52,0,0,0,2.51,2.52h8V45H205Z"/><path class="cls-5" d="M225.2,24.79V35.25h10.46V27.3a2.51,2.51,0,0,0-2.52-2.51Z"/><rect class="cls-6" x="215.5" y="44.95" width="4.9" height="10.48"/><path class="cls-7" d="M201.28,45H205V40.11H215.5V35.25h4.9V24.79h4.8V21.14H203.79a2.51,2.51,0,0,0-2.51,2.52Z"/><rect class="cls-8" x="220.4" y="24.79" width="4.8" height="10.46"/><rect class="cls-8" x="225.2" y="35.25" width="10.46" height="4.87"/><rect class="cls-9" x="215.5" y="35.25" width="4.9" height="4.87"/><polygon class="cls-10" points="220.4 35.25 220.4 40.11 220.4 40.11 225.2 40.11 225.2 35.25 220.4 35.25"/><polygon class="cls-9" points="220.4 40.11 220.4 44.95 220.4 44.95 225.2 44.95 225.2 40.11 220.4 40.11"/><rect class="cls-6" x="204.99" y="40.11" width="10.51" height="4.84"/><path class="cls-11" d="M236.57,58.89a2.52,2.52,0,0,0,2.52-2.52V35.25h-3.43v4.86H225.2V45h-4.8V55.43h-4.9v3.43Z"/><path class="cls-12" d="M232.56,44.46a4.66,4.66,0,0,0-6.87,0L220.4,49.8l-9.77-9.7,9.77-9.73L225.94,36a4.76,4.76,0,0,0,6.39,0,26.23,26.23,0,0,0,2.08-2.06l-8.51-8.51a7.91,7.91,0,0,0-11.11,0l-9.2,9.19a7.79,7.79,0,0,0,0,11l9.25,9.25a7.73,7.73,0,0,0,5.55,2.28A7.85,7.85,0,0,0,226,54.85l8.5-8.51Z"/><path class="cls-13" d="M249.64,55.29c3.24,0,4.06-1.65,4.06-3V48.68s-3.66.39-5.95.92c-2.07.47-2.71,1.11-2.71,2.73,0,2,1.34,3,4.6,3M250,37.71c5.43,0,9.65,1.78,9.65,6.77v8.18c0,3.54-3.45,6.16-9.91,6.16S239.12,56.73,239.12,52c0-4.17,2.92-5.31,11.35-6.43l3.22-.43c-.07-2.57-.67-3.74-4.87-3.74a28.36,28.36,0,0,0-7.62,1.26c-.63-1.4-.44-3.08.54-3.62s3.39-1.3,8.29-1.3"/><path class="cls-13" d="M10.51,55.29c3.25,0,4.06-1.65,4.06-3V48.68s-3.65.39-5.94.92c-2.07.47-2.71,1.11-2.71,2.73,0,2,1.33,3,4.59,3m.4-17.58c5.43,0,9.65,1.78,9.65,6.77v8.18c0,3.54-3.45,6.16-9.91,6.16S0,56.73,0,52c0-4.17,2.92-5.31,11.34-6.43l3.23-.43c-.07-2.57-.67-3.74-4.88-3.74a28.34,28.34,0,0,0-7.61,1.26c-.64-1.4-.44-3.08.54-3.62s3.39-1.3,8.29-1.3"/><path class="cls-13" d="M137,10.72c0-3.25-1.63-4.07-2.93-4.07H130.4s.38,3.65.9,6c.47,2.07,1.11,2.71,2.73,2.71,2,0,2.95-1.32,3-4.58m-17.57-.45c0-5.43,1.81-9.64,6.8-9.63l8.18,0c3.54,0,6.15,3.46,6.13,9.92s-2.13,10.65-6.89,10.63c-4.16,0-5.29-2.94-6.38-11.36l-.43-3.23c-2.57.06-3.74.66-3.75,4.86a28.52,28.52,0,0,0,1.23,7.62c-1.4.63-3.08.43-3.62-.55s-1.29-3.39-1.27-8.29"/><path class="cls-13" d="M137.16,110.52c0-3.24-1.63-4.06-2.94-4.07h-3.66s.39,3.66.91,6c.46,2.07,1.1,2.71,2.72,2.72,2,0,3-1.33,3-4.59m-17.58-.44c0-5.44,1.81-9.65,6.81-9.63l8.17,0c3.54,0,6.15,3.47,6.13,9.93S138.57,121,133.81,121c-4.17,0-5.3-2.94-6.39-11.37l-.43-3.22c-2.56.06-3.73.65-3.75,4.86a28.61,28.61,0,0,0,1.23,7.62c-1.39.63-3.08.43-3.61-.55s-1.29-3.39-1.28-8.29"/><rect class="cls-13" x="20.74" y="21.33" width="218.39" height="79.33"/><rect class="cls-13" x="10.28" y="10.93" width="239.12" height="100.47"/><rect class="cls-13" x="0.6" width="259.08" height="120.87"/><path class="cls-1" d="M20.63,87h8.44v2H22.82v3.16h5.33v2H22.82v3.16h6.37v2H20.63Z"/><path class="cls-1" d="M38,96l.32.94.31-.94,3.11-9H45V99.37H42.84V90.64l.06-1.24-3.5,10H37.29l-3.5-10,.06,1.26v8.71H31.66V87h3.26Z"/><path class="cls-1" d="M50,95.24v4.13H47.85V87H53a5.69,5.69,0,0,1,1.75.25,3.65,3.65,0,0,1,1.37.75A3.35,3.35,0,0,1,57,89.3a4.62,4.62,0,0,1,.33,1.82A4.4,4.4,0,0,1,57,92.93a3.58,3.58,0,0,1-.91,1.29,3.84,3.84,0,0,1-1.39.77,5.63,5.63,0,0,1-1.72.25ZM50,89v4.2H52.9c1.49,0,2.24-.71,2.24-2.13a2,2,0,0,0-.59-1.55A2.43,2.43,0,0,0,52.9,89Z"/><path class="cls-1" d="M68.67,99.37H66.34l-1-2.87h-5.1l-1,2.87H57L61.4,87h2.84Zm-7.74-4.81H64.7L62.81,89Z"/><path class="cls-1" d="M68.94,93.21a6.79,6.79,0,0,1,.48-2.57,5.95,5.95,0,0,1,3.37-3.35,6.91,6.91,0,0,1,5.06,0,6,6,0,0,1,3.37,3.34,6.54,6.54,0,0,1,.49,2.57,6.62,6.62,0,0,1-.49,2.6,6,6,0,0,1-1.35,2l1.4,1.73-1.48,1.25L78.27,99a6.69,6.69,0,0,1-3,.63,6.81,6.81,0,0,1-2.53-.46,5.87,5.87,0,0,1-2-1.29,6.11,6.11,0,0,1-1.34-2A6.85,6.85,0,0,1,68.94,93.21Zm2.18,0a5,5,0,0,0,.3,1.76,4,4,0,0,0,.85,1.38,3.78,3.78,0,0,0,1.32.9,4.41,4.41,0,0,0,1.73.32,4.54,4.54,0,0,0,1.61-.28l-1.48-1.83L77,94.24l1.57,1.94a4.06,4.06,0,0,0,.74-1.32,5.21,5.21,0,0,0,.25-1.66,5,5,0,0,0-.3-1.76,4,4,0,0,0-.85-1.38,3.76,3.76,0,0,0-1.32-.91,4.7,4.7,0,0,0-3.46,0,4,4,0,0,0-1.32.91,4.06,4.06,0,0,0-.85,1.39A5,5,0,0,0,71.12,93.21Z"/><path class="cls-1" d="M91.61,87h2.18v7.73a6.17,6.17,0,0,1-.29,2,3.82,3.82,0,0,1-.9,1.52,3.9,3.9,0,0,1-1.53,1,7.09,7.09,0,0,1-4.43,0,4,4,0,0,1-1.53-1,3.82,3.82,0,0,1-.9-1.52,6,6,0,0,1-.3-2V87H86.1v7.75a2.76,2.76,0,0,0,.73,2.13,2.83,2.83,0,0,0,2,.67,2.48,2.48,0,0,0,2.76-2.8Z"/><path class="cls-1" d="M96.62,87h8.43v2H98.8v3.16h5.33v2H98.8v3.16h6.37v2H96.62Z"/><path class="cls-1" d="M113.85,89.76a3.1,3.1,0,0,0-1-.72,3.23,3.23,0,0,0-1.29-.24,2,2,0,0,0-1.39.46,1.52,1.52,0,0,0-.48,1.13,1.54,1.54,0,0,0,.1.58,1.26,1.26,0,0,0,.32.49,2.29,2.29,0,0,0,.63.41,8.33,8.33,0,0,0,1,.41,14.77,14.77,0,0,1,1.82.74,5.3,5.3,0,0,1,1.21.81,2.76,2.76,0,0,1,.68,1,3.37,3.37,0,0,1,.21,1.23,4.41,4.41,0,0,1-.2,1.3,2.62,2.62,0,0,1-.67,1.13,3.56,3.56,0,0,1-1.32.8,6,6,0,0,1-2.1.31,6,6,0,0,1-2.47-.46,6.54,6.54,0,0,1-1.8-1.21l1.31-1.63a3.84,3.84,0,0,0,1.36,1,4,4,0,0,0,1.62.33,2.39,2.39,0,0,0,1.62-.42,1.45,1.45,0,0,0,.46-1.15,1.52,1.52,0,0,0-.1-.59A1.35,1.35,0,0,0,113,95a3.19,3.19,0,0,0-.73-.43,11.32,11.32,0,0,0-1.18-.46,7,7,0,0,1-2.72-1.47,3,3,0,0,1-.88-2.27,3.57,3.57,0,0,1,.27-1.4,3.2,3.2,0,0,1,.8-1.12,3.51,3.51,0,0,1,1.28-.74,5.17,5.17,0,0,1,1.74-.27,5,5,0,0,1,2,.39,5.2,5.2,0,0,1,1.48,1Z"/></g></g></svg>