<svg xmlns="http://www.w3.org/2000/svg" viewBox="0 0 389.45 114.21"><defs><style>.cls-1{fill:none;}.cls-1,.cls-12,.cls-13,.cls-14,.cls-15,.cls-16,.cls-17,.cls-18,.cls-19,.cls-2,.cls-20,.cls-21,.cls-3,.cls-5,.cls-6,.cls-8{fill-rule:evenodd;}.cls-2,.cls-23{fill:#367a3f;}.cls-22,.cls-3{fill:#243d5a;}.cls-4{fill:#407245;}.cls-5{fill:#64b0de;}.cls-6{fill:#63529a;}.cls-7{fill:#559564;}.cls-8{fill:#dd9248;}.cls-9{fill:#512a74;}.cls-10{fill:#c16629;}.cls-11{fill:#38295e;}.cls-12{fill:#aabf41;}.cls-13{fill:#fff;}.cls-14{fill:#abc5b6;}.cls-15{fill:#d0e6f5;}.cls-16{fill:#c9c5e1;}.cls-17{fill:#c9dccb;}.cls-18{fill:#f5dfc7;}.cls-19{fill:#bdb2d0;}.cls-20{fill:#e7c8af;}.cls-21{fill:#e1e8c5;}</style></defs><title>Recurso 14</title><g id="Capa_2" data-name="Capa 2"><g id="Capa_1-2" data-name="Capa 1"><path class="cls-1" d="M379.64,60.59c2.76,0,3.72-1.59,3.72-2.84V54.22s-2.06.25-4,.61V51.38l1.22-.18,2.79-.42c0-2.41-.3-3.53-4-3.59V43.66h.8c5.23,0,9.3,1.72,9.3,6.53v7.75c0,3.42-3.32,6.07-9.55,6.07h-.55V60.58Zm-.29-5.76c-.48.09-1,.18-1.4.28-2,.46-2.61,1.07-2.61,2.64,0,1.74,1.09,2.77,4,2.83V64c-6-.11-9.84-2.15-9.84-6.6,0-3.81,2.66-4.88,9.84-6v3.45Zm0-11.17v3.53H379a27.41,27.41,0,0,0-7.34,1.21c-.61-1.34-.43-3,.52-3.49S375.17,43.73,379.35,43.66Z"/><path class="cls-1" d="M10.13,60.59c2.76,0,3.72-1.59,3.72-2.84V54.22s-2.06.25-4,.61V51.38l1.21-.18,2.8-.42c0-2.41-.3-3.53-4-3.59V43.66h.8c5.23,0,9.3,1.72,9.3,6.53v7.75c0,3.42-3.32,6.07-9.55,6.07H9.84V60.58Zm-.29-5.76c-.49.09-1,.18-1.4.28-2,.46-2.61,1.07-2.61,2.64,0,1.74,1.09,2.77,4,2.83V64c-6-.11-9.84-2.15-9.84-6.6,0-3.81,2.66-4.88,9.84-6v3.45Zm0-11.17v3.53H9.47a27.41,27.41,0,0,0-7.34,1.21c-.61-1.34-.43-3,.52-3.49S5.66,43.73,9.84,43.66Z"/><path class="cls-1" d="M132.69,16.94c2.75,0,3.71-1.59,3.71-2.84V10.57s-2.06.25-4,.61V7.73l1.22-.18,2.79-.42c0-2.41-.3-3.52-4-3.59V0h.8c5.23,0,9.3,1.73,9.3,6.53v7.75c0,3.43-3.32,6.07-9.55,6.07h-.55V16.93Zm-.3-5.76c-.48.09-1,.18-1.4.28-2,.46-2.61,1.07-2.61,2.64,0,1.74,1.09,2.77,4,2.83v3.41c-6-.11-9.84-2.15-9.84-6.6,0-3.81,2.66-4.88,9.84-6v3.45Zm0-11.17V3.54H132a27.41,27.41,0,0,0-7.34,1.21c-.61-1.34-.42-3,.52-3.49S128.21.08,132.39,0Z"/><path class="cls-1" d="M132.69,110.8c2.75,0,3.71-1.58,3.71-2.84v-3.52s-2.06.24-4,.6V101.6l1.22-.19,2.79-.41c0-2.41-.3-3.53-4-3.6V93.87h.8c5.23,0,9.3,1.73,9.3,6.54v7.75c0,3.42-3.32,6.06-9.55,6.06h-.55V110.8Zm-.3-5.76-1.4.29c-2,.45-2.61,1.07-2.61,2.63,0,1.75,1.09,2.77,4,2.84v3.41c-6-.12-9.84-2.15-9.84-6.61,0-3.8,2.66-4.88,9.84-6V105Zm0-11.17V97.4H132a27.41,27.41,0,0,0-7.34,1.21c-.61-1.34-.42-3,.52-3.49S128.21,93.94,132.39,93.87Z"/><path class="cls-2" d="M41.6,34.82H75.35a6.5,6.5,0,0,1,6.31,6.43l.07,2.54C81.78,47.13,80,51,76,51H52.45v8.29H88.51c8,0,11.54-7.75,11.43-14.4l-.15-5.06C99.38,33.52,95.37,27.52,87.22,27H20V71.32H41.57Z"/><path class="cls-2" d="M71.44,43.25c0-.26,0-.34,0-.49,0-2.79-1.39-4.7-4.08-4.79H52.44v9.72H67.3C69.75,47.77,71.26,46.59,71.44,43.25Z"/><path class="cls-2" d="M26.47,80.26a2.18,2.18,0,0,0,1.36-.39,1.5,1.5,0,0,0,.49-1.25,1.15,1.15,0,0,0-.23-.76,1.49,1.49,0,0,0-.6-.45,2.81,2.81,0,0,0-.78-.22l-.27,0V73.85h.28a6.89,6.89,0,0,1,4.49,1.26,4.28,4.28,0,0,1,1.51,3.49,4.68,4.68,0,0,1-1.44,3.65,6.46,6.46,0,0,1-4.4,1.3h-.44V80.26Zm0-3.1a5.63,5.63,0,0,0-.58,0H24.55v3.13h1.89v3.29H24.55v4.38H19.94V73.85h6.5Z"/><path class="cls-2" d="M39.77,79.93a3.22,3.22,0,0,0,1.47-.31,1.09,1.09,0,0,0,.54-1,1.25,1.25,0,0,0-.51-1.09,2.23,2.23,0,0,0-1.35-.38h-.15V73.85h0c2.3,0,3.91.31,4.84,1A3.43,3.43,0,0,1,46,77.86a4,4,0,0,1-.6,2.19,3,3,0,0,1-1.77,1.25,8.5,8.5,0,0,1,1.09.46,2.31,2.31,0,0,1,.68.58,2.43,2.43,0,0,1,.46,1A7,7,0,0,1,46.06,85a14.13,14.13,0,0,0,.08,2c0,.29.18.44.41.44v.43H41.87a4.22,4.22,0,0,1-.16-.93,14.14,14.14,0,0,1-.07-1.54,6.33,6.33,0,0,0-.09-1.19,1.32,1.32,0,0,0-1.07-1.12,4.09,4.09,0,0,0-.71-.11Zm-2,0h2V83l-.59,0H37.77v4.91H33.15V73.85h6.62v3.28h-2Z"/><path class="cls-2" d="M54.34,84.86a2.31,2.31,0,0,0,2.09-1.1,5.58,5.58,0,0,0,.68-3A6.83,6.83,0,0,0,57,79.37a4.2,4.2,0,0,0-.5-1.25,2.64,2.64,0,0,0-.88-.88,2.44,2.44,0,0,0-1.23-.32V73.48a8.24,8.24,0,0,1,3.21.59,6.45,6.45,0,0,1,2.32,1.65,7,7,0,0,1,1.39,2.35,8.17,8.17,0,0,1,.46,2.74A8.51,8.51,0,0,1,61.16,84a6.58,6.58,0,0,1-3.92,3.83,8.29,8.29,0,0,1-2.9.5ZM53,77.26a2.62,2.62,0,0,0-.85.9,3.92,3.92,0,0,0-.46,1.24,7.33,7.33,0,0,0-.14,1.41,7.64,7.64,0,0,0,.13,1.44,4.37,4.37,0,0,0,.44,1.29,2.64,2.64,0,0,0,.86,1,2.36,2.36,0,0,0,1.33.36h0V88.3h0a8.66,8.66,0,0,1-3-.5A6.19,6.19,0,0,1,49,86.32a6.53,6.53,0,0,1-1.5-2.38A8.82,8.82,0,0,1,47,80.77a8,8,0,0,1,.53-3A6.47,6.47,0,0,1,49,75.46,6.55,6.55,0,0,1,51.35,74a8.4,8.4,0,0,1,3-.51h0v3.44h-.05A2.25,2.25,0,0,0,53,77.26Z"/><path class="cls-2" d="M69.15,80.26a2.16,2.16,0,0,0,1.36-.39,1.5,1.5,0,0,0,.5-1.25,1.15,1.15,0,0,0-.24-.76,1.39,1.39,0,0,0-.59-.45,3,3,0,0,0-.79-.22l-.27,0V73.85h.28a6.89,6.89,0,0,1,4.49,1.26,4.29,4.29,0,0,1,1.52,3.49A4.69,4.69,0,0,1,74,82.25a6.46,6.46,0,0,1-4.4,1.3h-.44V80.26Zm0-3.1a5.49,5.49,0,0,0-.58,0H67.23v3.13h1.89v3.29H67.23v4.38H62.62V73.85h6.5Z"/><path class="cls-2" d="M80.79,83.14h1.46l-1.46-5V73.85h2.36l5,14.08H83.6l-.55-1.86H80.79Zm0-5-1.42,5h1.45v2.93H78.46l-.53,1.86H73.41l5-14.08h2.33v4.34Z"/><polygon class="cls-2" points="88.92 87.93 88.92 73.85 93.53 73.85 93.53 84.64 99.87 84.64 99.87 87.93 88.92 87.93"/><path class="cls-3" d="M172.59,80.17a19,19,0,0,0,9.07-.92c.59,1,1.47,2.83-.69,4-1.49.81-3.78,1.27-7.9,1.27-8.37,0-14.18-4-14.22-13.58,0-9.83,5.85-13.34,14.22-13.34a20.21,20.21,0,0,1,7.38,1c2.16.82,2,2.93,1.21,4.26a18.81,18.81,0,0,0-9.07-.93c-5,.82-6.61,3.72-6.61,8.59C166,75.75,167.58,79.34,172.59,80.17Z"/><path class="cls-3" d="M195.8,81.13c2.75,0,3.71-1.59,3.71-2.84V74.76s-2.06.25-4,.61V71.92l1.22-.18,2.79-.42c0-2.41-.3-3.52-4-3.59V64.2h.8c5.23,0,9.3,1.72,9.3,6.53v7.75c0,3.43-3.32,6.07-9.55,6.07h-.55V81.12Zm-.3-5.76c-.48.09-1,.18-1.4.28-2,.46-2.61,1.07-2.61,2.64,0,1.74,1.09,2.77,4,2.83v3.41c-6-.11-9.84-2.15-9.84-6.6,0-3.81,2.66-4.88,9.84-6v3.45Zm0-11.17v3.53h-.37a27.41,27.41,0,0,0-7.34,1.21c-.61-1.34-.42-3,.52-3.49S191.32,64.27,195.5,64.2Z"/><path class="cls-3" d="M222,64.71c1.11.42,1.59,1.58,1.18,3.3a25.86,25.86,0,0,0-3.12-.2c-3,0-3.67.89-3.68,3.27v9.23a3.87,3.87,0,0,1-4.11,4,8,8,0,0,1-2.09-.17V70.76c0-4.48,2.78-6.56,7.34-6.56A13.2,13.2,0,0,1,222,64.71Z"/><path class="cls-3" d="M247.31,64.19a3.46,3.46,0,0,1,1.68.42l-6.77,16.52a4.68,4.68,0,0,1-4.47,3.17,5,5,0,0,1-5-3.17l-6.57-16.19a6.58,6.58,0,0,1,3.24-.75,4.18,4.18,0,0,1,4.26,2.59l4.74,12.75L243,67.2A4.1,4.1,0,0,1,247.31,64.19Z"/><path class="cls-3" d="M269.69,91.28c-1.11-.41-1.59-1.57-1.18-3.3a24.45,24.45,0,0,0,3.12.21c3,0,3.68-.9,3.68-3.27V68.16a3.88,3.88,0,0,1,4.11-4,7.62,7.62,0,0,1,2.09.18V85.23c0,4.49-2.78,6.56-7.34,6.56A12.94,12.94,0,0,1,269.69,91.28Z"/><path class="cls-3" d="M295.47,81.13c3.13,0,3.92-1.59,3.92-2.84V74.76s-2.17.24-4.17.59V71.88l1-.14,3.11-.42c-.06-2.36-.59-3.49-4.16-3.59V64.19h.63c5.24,0,9.3,1.72,9.3,6.53V78.6c0,3.41-3.32,5.94-9.54,5.94h-.39V81.12Zm-.25-5.78c-.55.09-1.09.19-1.57.3-2,.46-2.6,1.07-2.6,2.64,0,1.84,1.21,2.78,4.17,2.83v3.41c-6.08-.08-9.88-2.11-9.88-6.6,0-3.83,2.57-5,9.88-6.05v3.47Zm0-11.16v3.54h-.53a27.53,27.53,0,0,0-7.35,1.21c-.61-1.34-.42-3,.52-3.49S290.93,64.25,295.22,64.19Z"/><path class="cls-3" d="M321.42,83.78a12.91,12.91,0,0,1-4.48.51c-4.57,0-7.34-2.07-7.34-6.56V56.87a7.67,7.67,0,0,1,2.1-.18,3.88,3.88,0,0,1,4.11,4V77.42c0,2.37.66,3.27,3.67,3.27a24.45,24.45,0,0,0,3.12-.21C323,82.21,322.53,83.37,321.42,83.78Z"/><path class="cls-3" d="M260.58,81.13c2.76,0,3.71-1.59,3.71-2.84V74.76s-2.05.25-4,.61V71.92l1.23-.18,2.78-.42c0-2.41-.3-3.52-4-3.59V64.2h.8c5.24,0,9.3,1.72,9.3,6.53v7.64c0,3.41-3.32,6.18-9.54,6.18h-.56V81.12Zm-.3-5.76c-.48.09-1,.18-1.4.28-2,.46-2.6,1.07-2.6,2.64,0,1.74,1.09,2.77,4,2.83v3.41c-6-.12-9.83-2.15-9.83-6.6,0-3.8,2.66-4.88,9.83-6v3.45Zm0-11.17v3.53h-.37a27.51,27.51,0,0,0-7.34,1.21c-.61-1.34-.42-3,.52-3.49S256.11,64.27,260.28,64.2Z"/><rect class="cls-4" x="346.78" y="56.64" width="4.72" height="4.66"/><path class="cls-5" d="M336.66,69a2.42,2.42,0,0,0,2.42,2.43h7.7V61.3H336.66Z"/><path class="cls-6" d="M356.13,41.87V52H366.2V44.29a2.42,2.42,0,0,0-2.42-2.42Z"/><rect class="cls-7" x="346.78" y="61.3" width="4.72" height="10.1"/><path class="cls-8" d="M333.08,61.3h3.58V56.64h10.12V52h4.72V41.87h4.63V38.36H335.5a2.43,2.43,0,0,0-2.42,2.43Z"/><rect class="cls-9" x="351.5" y="41.87" width="4.62" height="10.08"/><rect class="cls-9" x="356.12" y="51.95" width="10.08" height="4.69"/><rect class="cls-10" x="346.78" y="51.95" width="4.72" height="4.69"/><rect class="cls-11" x="351.5" y="51.95" width="4.62" height="4.69"/><rect class="cls-10" x="351.5" y="56.64" width="4.62" height="4.66"/><rect class="cls-7" x="336.66" y="56.64" width="10.12" height="4.66"/><path class="cls-12" d="M367.08,74.73a2.43,2.43,0,0,0,2.43-2.43V52H366.2v4.69H356.12V61.3H351.5V71.4h-4.72v3.3Z"/><path class="cls-13" d="M356.15,41.87h0v0l0,0ZM346.78,71.4h0v0h0Zm4.72,0v0Z"/><polygon class="cls-14" points="346.78 61.3 346.8 61.3 346.78 61.29 346.78 61.3"/><path class="cls-15" d="M346.78,71.4h0a7,7,0,0,1-.63-.56l-8.92-8.91c-.16-.17-.35-.38-.55-.63h10.1Z"/><path class="cls-16" d="M363.72,52h-7.56l0,0v-10h0a8.6,8.6,0,0,1,.64.58l8.2,8.2S364.7,51,363.72,52Z"/><polygon class="cls-17" points="351.5 71.4 346.78 71.4 346.78 61.3 346.8 61.3 351.5 65.97 351.5 71.4"/><path class="cls-18" d="M336.66,61.27A7.5,7.5,0,0,1,335,56.61a7.59,7.59,0,0,1,2.2-5.31l8.87-8.85a7.59,7.59,0,0,1,10-.6v0H351.5v5.38h0L346.78,52h0l-4.69,4.68h-5.43Z"/><polygon class="cls-19" points="356.13 51.91 351.5 47.25 351.5 41.87 356.13 41.87 356.13 51.91"/><path class="cls-19" d="M359.8,53.82a4.13,4.13,0,0,1-3-1.19l-.68-.68h7.56l-.72.68A4.81,4.81,0,0,1,359.8,53.82Z"/><path class="cls-20" d="M346.78,52Z"/><path class="cls-17" d="M346.78,61.3h-10.1l0,0V56.64h5.44l4.68,4.65Z"/><path class="cls-21" d="M351.49,73a7.4,7.4,0,0,1-4.71-1.64h4.72V66h0l5.09-5.15a4.67,4.67,0,0,1,3.3-1.46,4.73,4.73,0,0,1,3.32,1.46L365,62.64l-8.19,8.2A7.56,7.56,0,0,1,351.49,73Z"/><path class="cls-22" d="M301.41,42.31V40.9a4,4,0,0,0,.79-.2,3.46,3.46,0,0,0,1.05-.66,3.06,3.06,0,0,0,1-2.27,10.88,10.88,0,0,0-2.81-.52V36l.32,0q.48,0,.93.12a7.45,7.45,0,0,1,.87.17,4,4,0,0,1,.69.22v-.6a2.67,2.67,0,0,0-.67-2,3.26,3.26,0,0,0-2.14-.63V31.81a5.08,5.08,0,0,1,3.31,1,4,4,0,0,1,1.11,3.12v6.2h-1.61V40.24a3.58,3.58,0,0,1-1.35,1.55A3.49,3.49,0,0,1,301.41,42.31Zm0-10.5v1.47h-.21a4.61,4.61,0,0,0-1.34.21,4.76,4.76,0,0,0-1.27.57L298,32.73a5.25,5.25,0,0,1,1.56-.69,6.31,6.31,0,0,1,1.66-.23Zm0,4.19v1.25H301a3.42,3.42,0,0,0-1.14.17,1.81,1.81,0,0,0-.72.42,1.4,1.4,0,0,0-.38.59,2,2,0,0,0-.11.68,1.57,1.57,0,0,0,.64,1.4,3,3,0,0,0,1.67.43,3.91,3.91,0,0,0,.49,0v1.41a4.8,4.8,0,0,1-.67,0,5.61,5.61,0,0,1-1.53-.2,3.37,3.37,0,0,1-1.19-.62,2.75,2.75,0,0,1-.77-1,3.48,3.48,0,0,1-.27-1.41,3,3,0,0,1,.28-1.33,2.82,2.82,0,0,1,.79-1,3.58,3.58,0,0,1,1.22-.61,5.43,5.43,0,0,1,1.55-.21c.19,0,.39,0,.59,0ZM281,42.35V40.9h.28a4.92,4.92,0,0,0,3.16-1l.83,1.21a6,6,0,0,1-.83.55,4.71,4.71,0,0,1-.89.39,7.44,7.44,0,0,1-1,.23,9.23,9.23,0,0,1-1.24.08Zm0-4.56V36.38h3.36A3,3,0,0,0,281,33.24h0V31.81h0a5.62,5.62,0,0,1,2.18.39,4.18,4.18,0,0,1,1.55,1.09,4.56,4.56,0,0,1,.93,1.66,6.77,6.77,0,0,1,.31,2.11c0,.15,0,.29,0,.42a1.35,1.35,0,0,1,0,.31ZM293.8,34a3.79,3.79,0,0,0-1.06-.58,3.17,3.17,0,0,0-1.1-.2,2.69,2.69,0,0,0-.91.13,1.76,1.76,0,0,0-.59.34,1.34,1.34,0,0,0-.33.47,1.42,1.42,0,0,0-.1.53,1.38,1.38,0,0,0,.11.59,1.06,1.06,0,0,0,.35.44,2.62,2.62,0,0,0,.63.36c.27.1.59.22,1,.34.58.19,1.08.37,1.51.56a4.25,4.25,0,0,1,1.06.64,2.28,2.28,0,0,1,.61.79,2.4,2.4,0,0,1,.2,1,3.11,3.11,0,0,1-.2,1.14,2.3,2.3,0,0,1-.63.92,3.08,3.08,0,0,1-1.12.62,5.73,5.73,0,0,1-1.67.22,6.33,6.33,0,0,1-2-.3,5.56,5.56,0,0,1-1.74-1l.45-.62.42-.59a4.76,4.76,0,0,0,1.37.81,4.36,4.36,0,0,0,1.49.28,2.53,2.53,0,0,0,1.54-.39,1.32,1.32,0,0,0,.51-1.1,1.17,1.17,0,0,0-.45-.94,5,5,0,0,0-1.66-.73,14.25,14.25,0,0,1-1.48-.55,3.84,3.84,0,0,1-1-.64,2.24,2.24,0,0,1-.6-.84,2.69,2.69,0,0,1-.2-1.11,2.61,2.61,0,0,1,.86-1.92,3.7,3.7,0,0,1,1.1-.66,4.11,4.11,0,0,1,1.56-.26,4.94,4.94,0,0,1,1.68.26,4.16,4.16,0,0,1,1.34.74ZM281,31.81v1.43a3.23,3.23,0,0,0-2.32.84,3.63,3.63,0,0,0-1,2.3H281v1.41h-3.36a3.18,3.18,0,0,0,1.12,2.34,3.82,3.82,0,0,0,2.24.77v1.45a5.62,5.62,0,0,1-2-.39,4.74,4.74,0,0,1-1.68-1.09,4.67,4.67,0,0,1-1-1.67,6.29,6.29,0,0,1-.34-2.12,6.08,6.08,0,0,1,.33-2,4.81,4.81,0,0,1,2.59-2.84,5,5,0,0,1,2.13-.43ZM262,42.35V40.89h0a4.05,4.05,0,0,0,1.56-.29,3.31,3.31,0,0,0,1.17-.81,3.44,3.44,0,0,0,.73-1.21,4.54,4.54,0,0,0,.25-1.5,4.47,4.47,0,0,0-.26-1.53,3.64,3.64,0,0,0-.75-1.21,3.43,3.43,0,0,0-1.17-.78,3.9,3.9,0,0,0-1.53-.28h0V31.81h.29a5.54,5.54,0,0,1,2.08.38,4.57,4.57,0,0,1,1.6,1.08,4.91,4.91,0,0,1,1,1.66,6.1,6.1,0,0,1,.36,2.15,6.2,6.2,0,0,1-.36,2.16,5,5,0,0,1-1,1.66,4.71,4.71,0,0,1-1.6,1.08,5.54,5.54,0,0,1-2.08.38Zm12.95-8.91a4.26,4.26,0,0,0-1.07-.12,2.21,2.21,0,0,0-1.83.82,3.45,3.45,0,0,0-.66,2.22v5.76h-1.62V32.05h1.62V33.7a3.41,3.41,0,0,1,1.08-1.37,2.76,2.76,0,0,1,1.69-.52,3.39,3.39,0,0,1,.45,0,1.31,1.31,0,0,1,.34.06ZM262,31.81v1.47a3.92,3.92,0,0,0-1.52.29,3.27,3.27,0,0,0-1.18.81,3.58,3.58,0,0,0-.77,1.2,4.16,4.16,0,0,0-.27,1.5,4.3,4.3,0,0,0,.26,1.5,3.48,3.48,0,0,0,.75,1.21,3.44,3.44,0,0,0,1.18.81,4.24,4.24,0,0,0,1.55.29v1.46a5.06,5.06,0,0,1-2-.49,4.15,4.15,0,0,1-1.7-1.44v5.72h-1.61V32.05h1.61V33.8A4.37,4.37,0,0,1,260,32.32a5.29,5.29,0,0,1,2-.51ZM232,42.35V40.9h.29a4.94,4.94,0,0,0,3.16-1l.82,1.21a5.87,5.87,0,0,1-.82.55,4.8,4.8,0,0,1-.9.39,7.12,7.12,0,0,1-1,.23,9.18,9.18,0,0,1-1.23.08Zm0-4.56V36.38h3.37a3.39,3.39,0,0,0-1-2.37,3.44,3.44,0,0,0-2.36-.77h0V31.81h0a5.67,5.67,0,0,1,2.19.39,4.26,4.26,0,0,1,1.55,1.09,4.56,4.56,0,0,1,.93,1.66,7.07,7.07,0,0,1,.31,2.11c0,.15,0,.29,0,.42s0,.23,0,.31Zm20.14-2.62a2,2,0,0,0-.47-1.43,2.17,2.17,0,0,0-1.61-.48,3,3,0,0,0-1.05.18,2.42,2.42,0,0,0-.86.52,2.39,2.39,0,0,0-.56.83,2.68,2.68,0,0,0-.2,1.09v6.24h-1.61V35.17a2,2,0,0,0-.47-1.43,2.18,2.18,0,0,0-1.61-.48,3,3,0,0,0-1,.17,2.38,2.38,0,0,0-.84.5,2.43,2.43,0,0,0-.57.8,2.83,2.83,0,0,0-.24,1v6.37h-1.61V32.05H241V33.6a3.06,3.06,0,0,1,1.31-1.37,3.83,3.83,0,0,1,1.75-.42,5.3,5.3,0,0,1,.88.07,3.35,3.35,0,0,1,.87.26,2.93,2.93,0,0,1,.75.53,2.32,2.32,0,0,1,.54.91,3.72,3.72,0,0,1,1.46-1.33,4.24,4.24,0,0,1,1.87-.44,5.55,5.55,0,0,1,1.12.12,2.66,2.66,0,0,1,1.07.48,2.74,2.74,0,0,1,.8,1,4.29,4.29,0,0,1,.31,1.75v6.93H252.1ZM232,31.81v1.43a3.22,3.22,0,0,0-2.31.84,3.64,3.64,0,0,0-1.05,2.3H232v1.41H228.6a3.19,3.19,0,0,0,1.13,2.34,3.79,3.79,0,0,0,2.23.77v1.45a5.71,5.71,0,0,1-2-.39,4.7,4.7,0,0,1-1.67-1.09,4.56,4.56,0,0,1-1-1.67,6.29,6.29,0,0,1-.34-2.12,6.08,6.08,0,0,1,.33-2,4.73,4.73,0,0,1,1-1.68,5,5,0,0,1,1.6-1.16,5,5,0,0,1,2.13-.43Zm-17.12,10.5V40.9a4.16,4.16,0,0,0,.79-.2,3.41,3.41,0,0,0,1-.66,3,3,0,0,0,.72-1,3.17,3.17,0,0,0,.26-1.27,11,11,0,0,0-2.81-.52V36l.31,0c.33,0,.64.07.94.12a7.27,7.27,0,0,1,.86.17,3.88,3.88,0,0,1,.7.22v-.6a2.67,2.67,0,0,0-.67-2,3.3,3.3,0,0,0-2.14-.63V31.81a5,5,0,0,1,3.3,1,4,4,0,0,1,1.12,3.12v6.2h-1.61V40.24a3.58,3.58,0,0,1-1.35,1.55A3.49,3.49,0,0,1,214.84,42.31Zm-25.76-3.94a2.65,2.65,0,0,0,.54,1.92,2.33,2.33,0,0,0,1.69.54,3,3,0,0,0,2.42-1,4,4,0,0,0,.87-2.68V32.05h1.61V42.12H194.6V40.18a3.65,3.65,0,0,1-1.34,1.6,4.15,4.15,0,0,1-2.33.58,3.46,3.46,0,0,1-2.55-.91,3.79,3.79,0,0,1-.91-2.8v-6.6h1.61v6.32Zm25.76-6.56v1.47h-.21a4.73,4.73,0,0,0-1.35.21,5.06,5.06,0,0,0-1.27.57l-.6-1.33A5,5,0,0,1,213,32a6.25,6.25,0,0,1,1.66-.23Zm0,4.19v1.25h-.45a3.34,3.34,0,0,0-1.14.17,1.92,1.92,0,0,0-.73.42,1.5,1.5,0,0,0-.38.59,2.25,2.25,0,0,0-.11.68,1.57,1.57,0,0,0,.65,1.4,3,3,0,0,0,1.67.43,3.91,3.91,0,0,0,.49,0v1.41a4.91,4.91,0,0,1-.67,0,5.51,5.51,0,0,1-1.53-.2,3.29,3.29,0,0,1-1.19-.62,2.67,2.67,0,0,1-.78-1,3.48,3.48,0,0,1-.27-1.41,3.13,3.13,0,0,1,.28-1.33,2.85,2.85,0,0,1,.8-1,3.58,3.58,0,0,1,1.22-.61,5.38,5.38,0,0,1,1.55-.21c.19,0,.38,0,.59,0Zm-8.36-.23a2.91,2.91,0,0,0-.51-1.88,2.2,2.2,0,0,0-1.79-.61,3.23,3.23,0,0,0-1.33.27,3.71,3.71,0,0,0-1.06.73,3.48,3.48,0,0,0-.7,1.07,3.17,3.17,0,0,0-.25,1.25v5.52h-1.61V32.05h1.61v1.83a4.12,4.12,0,0,1,1.55-1.55,4.19,4.19,0,0,1,2.07-.52,4.7,4.7,0,0,1,1.7.27,2.7,2.7,0,0,1,1.12.77,3.24,3.24,0,0,1,.62,1.23,6.72,6.72,0,0,1,.18,1.61v6.43h-1.6Z"/><rect class="cls-23" x="131.03" y="20.35" width="1.49" height="73.52"/></g></g></svg>