<svg xmlns="http://www.w3.org/2000/svg" viewBox="0 0 259.8 140.7"><defs><style>.cls-1,.cls-2{fill:#243d5a;}.cls-2{fill-rule:evenodd;}.cls-3{fill:#3f6f48;}.cls-4{fill:#6eace0;}.cls-5{fill:#5b4691;}.cls-6{fill:#51874d;}.cls-7{fill:#d78029;}.cls-8{fill:#582a65;}.cls-9{fill:#b36022;}.cls-10{fill:#362551;}.cls-11{fill:#95ba3a;}.cls-12{fill:#fff;opacity:0.75;}.cls-13{fill:none;}</style></defs><title>Recurso 9</title><g id="Capa_2" data-name="Capa 2"><g id="Capa_1-2" data-name="Capa 1"><path class="cls-1" d="M34.24,64.48a20,20,0,0,0,9.42-1c.61,1.09,1.52,2.93-.72,4.17C41.39,68.54,39,69,34.74,69,26.05,69,20,64.9,20,54.91c0-10.21,6.08-13.85,14.77-13.85a21.18,21.18,0,0,1,7.66,1.07c2.24.85,2.07,3,1.26,4.42a19.7,19.7,0,0,0-9.42-1c-5.21.85-6.87,3.86-6.87,8.91C27.37,59.89,29,63.62,34.24,64.48Z"/><path class="cls-2" d="M58.33,65.47c2.87,0,3.86-1.64,3.86-2.95V58.86s-3.33.4-5.62.92c-2.07.48-2.7,1.11-2.7,2.74C53.87,64.39,55.07,65.47,58.33,65.47Zm.52-17.59c5.44,0,9.66,1.79,9.66,6.78v8.05c0,3.55-3.45,6.3-9.91,6.3s-10.79-2.1-10.79-6.86c0-4.17,3.07-5.18,11.48-6.43l2.9-.43c0-2.59-.34-3.74-4.55-3.74A28.46,28.46,0,0,0,50,52.81c-.64-1.4-.44-3.08.53-3.63S54,47.88,58.85,47.88Z"/><path class="cls-2" d="M85.52,48.42c1.15.44,1.65,1.64,1.23,3.43a26.44,26.44,0,0,0-3.24-.21c-3.13,0-3.82.93-3.82,3.39v9.59a4,4,0,0,1-4.27,4.12,7.93,7.93,0,0,1-2.18-.19V54.71c0-4.66,2.89-6.81,7.62-6.81A13.81,13.81,0,0,1,85.52,48.42Z"/><path class="cls-2" d="M111.83,47.88a3.64,3.64,0,0,1,1.74.43l-7,17.16a4.87,4.87,0,0,1-4.64,3.29,5.15,5.15,0,0,1-5.24-3.29L89.84,48.66a6.85,6.85,0,0,1,3.37-.78,4.34,4.34,0,0,1,4.42,2.69l4.92,13.24L107.3,51A4.24,4.24,0,0,1,111.83,47.88Z"/><path class="cls-2" d="M135.06,76c-1.15-.43-1.65-1.63-1.23-3.42a26.71,26.71,0,0,0,3.25.21c3.12,0,3.81-.93,3.81-3.4V52a4,4,0,0,1,4.27-4.12,7.93,7.93,0,0,1,2.18.19V69.73c0,4.65-2.88,6.81-7.62,6.81A13.48,13.48,0,0,1,135.06,76Z"/><path class="cls-2" d="M161.83,65.47c3.25,0,4.06-1.64,4.06-2.95V58.86s-3.66.4-6,.92c-2.06.48-2.7,1.11-2.7,2.74C157.24,64.49,158.57,65.47,161.83,65.47Zm.39-17.59c5.44,0,9.66,1.79,9.66,6.78v8.18c0,3.55-3.44,6.17-9.91,6.17s-10.66-2.1-10.66-6.86c0-4.17,2.92-5.31,11.35-6.43l3.23-.43c-.06-2.57-.66-3.74-4.88-3.74a28.46,28.46,0,0,0-7.62,1.26c-.64-1.4-.44-3.08.54-3.63S157.32,47.88,162.22,47.88Z"/><path class="cls-2" d="M188.77,68.23a13.67,13.67,0,0,1-4.65.53c-4.74,0-7.62-2.15-7.62-6.82V40.29a7.93,7.93,0,0,1,2.18-.19A4,4,0,0,1,183,44.22v17.4c0,2.46.68,3.39,3.81,3.39A26.44,26.44,0,0,0,190,64.8C190.43,66.59,189.92,67.8,188.77,68.23Z"/><path class="cls-2" d="M125.6,65.47c2.87,0,3.86-1.64,3.86-2.95V58.86s-3.33.4-5.62.92c-2.06.48-2.7,1.11-2.7,2.74C121.14,64.39,122.34,65.47,125.6,65.47Zm.53-17.59c5.43,0,9.65,1.79,9.65,6.78v7.93c0,3.55-3.45,6.42-9.91,6.42s-10.79-2.1-10.79-6.86c0-4.17,3.07-5.18,11.48-6.43l2.9-.43c0-2.59-.34-3.74-4.55-3.74a28.46,28.46,0,0,0-7.62,1.26c-.64-1.4-.44-3.08.54-3.63S121.22,47.88,126.13,47.88Z"/><rect class="cls-3" x="215.11" y="40.04" width="4.9" height="4.84"/><path class="cls-4" d="M204.59,52.84a2.53,2.53,0,0,0,2.52,2.53h8V44.88H204.59Z"/><path class="cls-5" d="M224.81,24.71V35.17h10.47v-8a2.51,2.51,0,0,0-2.52-2.51Z"/><rect class="cls-6" x="215.11" y="44.88" width="4.9" height="10.49"/><path class="cls-7" d="M200.89,44.88h3.7V40h10.52V35.17H220V24.71h4.8V21.06H203.4a2.52,2.52,0,0,0-2.52,2.52Z"/><rect class="cls-8" x="220.01" y="24.71" width="4.8" height="10.46"/><rect class="cls-8" x="224.81" y="35.17" width="10.46" height="4.87"/><rect class="cls-9" x="215.11" y="35.17" width="4.9" height="4.87"/><polygon class="cls-10" points="220.01 35.17 220.01 40.04 220.01 40.04 224.81 40.04 224.81 35.17 220.01 35.17"/><polygon class="cls-9" points="220.01 40.04 220.01 44.88 220.01 44.88 224.81 44.88 224.81 40.04 220.01 40.04"/><rect class="cls-6" x="204.59" y="40.04" width="10.51" height="4.84"/><path class="cls-11" d="M236.19,58.82a2.51,2.51,0,0,0,2.52-2.51V35.17h-3.43V40H224.81v4.84H220V55.37h-4.9V58.8Z"/><path class="cls-12" d="M232.17,44.39a4.65,4.65,0,0,0-6.87,0L220,49.73,210.23,40,220,30.29l5.54,5.59a4.78,4.78,0,0,0,6.4,0c1.61-1.51,2.08-2.06,2.08-2.06l-8.52-8.52a7.91,7.91,0,0,0-11.11,0l-9.2,9.2a7.79,7.79,0,0,0,0,11l9.25,9.25A7.73,7.73,0,0,0,220,57.07a7.83,7.83,0,0,0,5.56-2.29l8.51-8.51Z"/><path class="cls-13" d="M249.75,55.31c3.25,0,4.07-1.64,4.07-3V48.7s-3.66.4-5.95.92c-2.07.48-2.71,1.12-2.71,2.74,0,2,1.33,3,4.59,3m.39-17.58c5.44,0,9.66,1.78,9.66,6.78v8.17c0,3.55-3.45,6.17-9.91,6.17s-10.66-2.1-10.66-6.86c0-4.17,2.93-5.31,11.35-6.42l3.23-.44c-.07-2.57-.67-3.74-4.88-3.74a28.46,28.46,0,0,0-7.62,1.26c-.63-1.4-.43-3.08.54-3.62s3.39-1.3,8.29-1.3"/><path class="cls-13" d="M10.52,55.31c3.25,0,4.06-1.64,4.06-3V48.7s-3.66.4-5.95.92c-2.07.48-2.71,1.12-2.71,2.74,0,2,1.34,3,4.6,3m.39-17.58c5.44,0,9.66,1.78,9.66,6.78v8.17c0,3.55-3.45,6.17-9.91,6.17S0,56.75,0,52c0-4.17,2.92-5.31,11.35-6.42l3.22-.44c-.06-2.57-.66-3.74-4.87-3.74a28.36,28.36,0,0,0-7.62,1.26c-.64-1.4-.44-3.08.54-3.62s3.39-1.3,8.29-1.3"/><path class="cls-13" d="M137.06,10.72c0-3.24-1.63-4.06-2.94-4.07h-3.66s.39,3.66.91,6c.46,2.07,1.1,2.71,2.72,2.72,2,0,3-1.33,3-4.59m-17.59-.44c0-5.44,1.82-9.65,6.81-9.64l8.18,0c3.54,0,6.16,3.46,6.14,9.93s-2.13,10.65-6.89,10.63c-4.17,0-5.3-2.94-6.39-11.37l-.43-3.22c-2.57.05-3.74.65-3.75,4.86a28.61,28.61,0,0,0,1.23,7.62c-1.4.63-3.08.43-3.62-.55s-1.29-3.39-1.28-8.29"/><path class="cls-13" d="M137.22,130.19c0-3.25-1.63-4.07-2.94-4.07l-3.66,0s.39,3.66.91,6c.47,2.07,1.1,2.71,2.73,2.71,2,0,3-1.32,3-4.58m-17.58-.45c0-5.43,1.81-9.65,6.81-9.63l8.17,0c3.55,0,6.16,3.47,6.14,9.93s-2.13,10.65-6.89,10.64c-4.17,0-5.3-2.94-6.39-11.37l-.43-3.23c-2.56.06-3.74.65-3.75,4.86a28.64,28.64,0,0,0,1.23,7.63c-1.39.63-3.08.43-3.62-.55s-1.29-3.4-1.27-8.3"/><rect class="cls-13" x="20.75" y="21.34" width="218.49" height="98.78"/><rect class="cls-13" x="10.28" y="10.94" width="239.23" height="119.4"/><rect class="cls-13" x="0.6" width="259.2" height="139.71"/><path class="cls-1" d="M20.35,87.12h9.18v2H26V99.48H23.85V89.13h-3.5Z"/><path class="cls-1" d="M31.65,87.12h8.43v2H33.84v3.16h5.33v2H33.84v3.16h6.37v2H31.65Z"/><path class="cls-1" d="M48,97.68a4,4,0,0,0,1.45-.25,4.35,4.35,0,0,0,1.18-.65l1.14,1.71a6,6,0,0,1-1.66.86,6.15,6.15,0,0,1-2.11.34,6.87,6.87,0,0,1-2.54-.47,6.35,6.35,0,0,1-2-1.3,6.07,6.07,0,0,1-1.35-2,6.8,6.8,0,0,1-.48-2.6,6.65,6.65,0,0,1,.48-2.55,6.3,6.3,0,0,1,1.34-2,5.93,5.93,0,0,1,2-1.33A6.57,6.57,0,0,1,48,86.91a6.41,6.41,0,0,1,2.15.32,6.29,6.29,0,0,1,1.63.88L50.6,89.82a4,4,0,0,0-2.63-.9,4.48,4.48,0,0,0-1.65.3A3.6,3.6,0,0,0,45,90.1a4.06,4.06,0,0,0-.87,1.38,5.34,5.34,0,0,0,0,3.64A3.93,3.93,0,0,0,45,96.5a3.6,3.6,0,0,0,1.34.88A4.64,4.64,0,0,0,48,97.68Z"/><path class="cls-1" d="M56.25,90.09l0,1.18v8.21H54.1V87.12h2.63l5.57,9.39,0-1.13V87.12h2.19V99.48H61.83Z"/><path class="cls-1" d="M66.66,93.32a6.81,6.81,0,0,1,.49-2.58,6,6,0,0,1,1.34-2,6.25,6.25,0,0,1,2-1.32,6.93,6.93,0,0,1,5.07,0,6.36,6.36,0,0,1,2,1.32,6.25,6.25,0,0,1,1.34,2,7.2,7.2,0,0,1,0,5.17,6,6,0,0,1-1.34,2,6.31,6.31,0,0,1-2,1.3,7.14,7.14,0,0,1-5.07,0,6,6,0,0,1-2-1.3,6,6,0,0,1-1.34-2A6.8,6.8,0,0,1,66.66,93.32Zm2.19,0a5,5,0,0,0,.3,1.75A4,4,0,0,0,70,96.46a3.69,3.69,0,0,0,1.32.9,4.59,4.59,0,0,0,1.73.32,4.34,4.34,0,0,0,1.73-.33,3.89,3.89,0,0,0,1.33-.91A4.19,4.19,0,0,0,77,95.06a5.31,5.31,0,0,0,0-3.52,4.19,4.19,0,0,0-.84-1.38,3.89,3.89,0,0,0-1.33-.91,4.34,4.34,0,0,0-1.73-.33,4.41,4.41,0,0,0-1.73.33,3.85,3.85,0,0,0-1.32.91,4,4,0,0,0-.85,1.39A5.06,5.06,0,0,0,68.85,93.32Z"/><path class="cls-1" d="M81.65,87.12h2.19V97.47H89.1v2H81.65Z"/><path class="cls-1" d="M89.36,93.32a6.62,6.62,0,0,1,.49-2.58,6,6,0,0,1,1.34-2,6.25,6.25,0,0,1,2-1.32,6.91,6.91,0,0,1,5.06,0,6,6,0,0,1,3.37,3.34,7.06,7.06,0,0,1,0,5.17,5.9,5.9,0,0,1-1.34,2,6.1,6.1,0,0,1-2,1.3,7.12,7.12,0,0,1-5.06,0,6,6,0,0,1-2-1.3,6,6,0,0,1-1.34-2A6.62,6.62,0,0,1,89.36,93.32Zm2.19,0a5,5,0,0,0,.3,1.75,4,4,0,0,0,.85,1.39,3.61,3.61,0,0,0,1.32.9,4.59,4.59,0,0,0,1.73.32,4.37,4.37,0,0,0,1.73-.33,3.76,3.76,0,0,0,1.32-.91,4.05,4.05,0,0,0,.85-1.38,5.31,5.31,0,0,0,0-3.52,4.05,4.05,0,0,0-.85-1.38,3.76,3.76,0,0,0-1.32-.91,4.7,4.7,0,0,0-3.46,0,3.76,3.76,0,0,0-1.32.91,4,4,0,0,0-.85,1.39A5.06,5.06,0,0,0,91.55,93.32Z"/><path class="cls-1" d="M110.17,86.91a6.37,6.37,0,0,1,2.15.32,6.25,6.25,0,0,1,1.65.88l-1.15,1.71a4.23,4.23,0,0,0-1.14-.65,4.3,4.3,0,0,0-1.51-.25,4.48,4.48,0,0,0-1.65.3,3.6,3.6,0,0,0-1.32.88,4.24,4.24,0,0,0-.88,1.38A5,5,0,0,0,106,93.3a5.22,5.22,0,0,0,.3,1.82,4.06,4.06,0,0,0,.87,1.38,3.6,3.6,0,0,0,1.32.88,4.55,4.55,0,0,0,1.67.3,4.39,4.39,0,0,0,1.34-.18,3.76,3.76,0,0,0,1.13-.6V94.31h-3v-2h5.07v5.55a7.17,7.17,0,0,1-2.07,1.39,6.4,6.4,0,0,1-2.52.46,6.93,6.93,0,0,1-2.58-.47,6.07,6.07,0,0,1-2-1.3,6,6,0,0,1-1.31-2,7,7,0,0,1-.46-2.6,6.8,6.8,0,0,1,.48-2.6,6,6,0,0,1,1.34-2,6.26,6.26,0,0,1,2-1.3A6.75,6.75,0,0,1,110.17,86.91Z"/><path class="cls-1" d="M117.16,87.12h2.19V99.48h-2.19Zm1.43-3.74h2l-1.73,2.68h-1.25Z"/><path class="cls-1" d="M132.64,99.48h-2.33l-1-2.88h-5.1l-1,2.88h-2.33l4.43-12.36h2.84Zm-7.75-4.82h3.78l-1.89-5.61Z"/><path class="cls-1" d="M26.85,114.68v4.41H24.66v-4.41l-4.49-8h2.55l3,5.78,3-5.78h2.54Z"/><path class="cls-1" d="M43.54,109.47a3.1,3.1,0,0,0-1-.72,3.41,3.41,0,0,0-1.29-.23,1.94,1.94,0,0,0-1.39.46,1.49,1.49,0,0,0-.48,1.13,1.81,1.81,0,0,0,.09.58,1.38,1.38,0,0,0,.33.48,2.29,2.29,0,0,0,.63.42,8.49,8.49,0,0,0,1,.4,14.66,14.66,0,0,1,1.82.75,4.72,4.72,0,0,1,1.21.81,2.67,2.67,0,0,1,.68,1,3.32,3.32,0,0,1,.21,1.22,4.42,4.42,0,0,1-.19,1.31,2.81,2.81,0,0,1-.68,1.13,3.56,3.56,0,0,1-1.32.8,7,7,0,0,1-4.57-.16,6.12,6.12,0,0,1-1.8-1.21L38.11,116a3.84,3.84,0,0,0,1.36,1,4,4,0,0,0,1.62.32,2.39,2.39,0,0,0,1.62-.41,1.47,1.47,0,0,0,.46-1.16,1.55,1.55,0,0,0-.1-.59,1.24,1.24,0,0,0-.37-.47,3.19,3.19,0,0,0-.73-.44c-.3-.14-.7-.29-1.18-.46a7,7,0,0,1-2.72-1.46,3.05,3.05,0,0,1-.88-2.28,3.6,3.6,0,0,1,.27-1.4,3.16,3.16,0,0,1,.8-1.12,3.43,3.43,0,0,1,1.28-.74,5.13,5.13,0,0,1,1.74-.27,5,5,0,0,1,2,.39,5.2,5.2,0,0,1,1.48,1Z"/><path class="cls-1" d="M47.48,106.73h8.44v2H49.67v3.16H55v2H49.67v3.16H56v2H47.48Z"/><path class="cls-1" d="M63.52,114.75H60.7v4.34H58.51V106.73h5a7.1,7.1,0,0,1,1.77.21,3.64,3.64,0,0,1,1.4.67,3.28,3.28,0,0,1,.93,1.22,4.59,4.59,0,0,1,.35,1.89,4.13,4.13,0,0,1-.62,2.39,3.47,3.47,0,0,1-1.68,1.3l2.62,4.68H65.87Zm-2.82-6v4h2.88c1.47,0,2.2-.68,2.2-2s-.73-2-2.2-2Z"/><path class="cls-1" d="M76.46,119.09H73.62l-4.43-12.36h2.35L75,117l3.51-10.26h2.35Z"/><path class="cls-1" d="M82.83,106.73H85v12.36H82.83Z"/><path class="cls-1" d="M93.72,117.29a4,4,0,0,0,1.46-.25,4.15,4.15,0,0,0,1.17-.65l1.15,1.71a6.15,6.15,0,0,1-3.78,1.2,6.82,6.82,0,0,1-2.53-.47,6.19,6.19,0,0,1-2-1.3,5.78,5.78,0,0,1-1.35-2,6.8,6.8,0,0,1-.49-2.6,6.66,6.66,0,0,1,.49-2.55,6.27,6.27,0,0,1,1.33-2,6.13,6.13,0,0,1,2-1.33,6.59,6.59,0,0,1,2.53-.48,6.31,6.31,0,0,1,2.14.32,6.49,6.49,0,0,1,1.64.88l-1.15,1.71a4.33,4.33,0,0,0-1.13-.65,4.24,4.24,0,0,0-1.5-.25,4.48,4.48,0,0,0-1.65.3,3.77,3.77,0,0,0-1.33.88,4.06,4.06,0,0,0-.87,1.38,5.34,5.34,0,0,0,0,3.64,4.08,4.08,0,0,0,.88,1.38A3.76,3.76,0,0,0,92,117,4.64,4.64,0,0,0,93.72,117.29Z"/><path class="cls-1" d="M99.79,106.73H102v12.36H99.79Z"/><path class="cls-1" d="M104.19,112.93a6.81,6.81,0,0,1,.48-2.58A5.95,5.95,0,0,1,108,107a6.93,6.93,0,0,1,5.07,0,6.25,6.25,0,0,1,2,1.32,6.1,6.1,0,0,1,1.34,2,7.06,7.06,0,0,1,0,5.17,5.9,5.9,0,0,1-1.34,2,6,6,0,0,1-2,1.3,7.14,7.14,0,0,1-5.07,0,5.88,5.88,0,0,1-3.37-3.31A6.8,6.8,0,0,1,104.19,112.93Zm2.19,0a5,5,0,0,0,.3,1.76,4.19,4.19,0,0,0,.84,1.38,3.73,3.73,0,0,0,1.33.9,4.52,4.52,0,0,0,1.73.32,4.41,4.41,0,0,0,1.73-.33,3.85,3.85,0,0,0,1.32-.91,4.21,4.21,0,0,0,.85-1.38,5,5,0,0,0,.3-1.76,5,5,0,0,0-.3-1.75,4.16,4.16,0,0,0-.85-1.39,3.85,3.85,0,0,0-1.32-.91,4.41,4.41,0,0,0-1.73-.33,4.34,4.34,0,0,0-1.73.33,3.89,3.89,0,0,0-1.33.91,4.14,4.14,0,0,0-.84,1.39A5.1,5.1,0,0,0,106.38,112.93Z"/><path class="cls-1" d="M125.21,109.47a3.13,3.13,0,0,0-1-.72,3.34,3.34,0,0,0-1.29-.23,1.9,1.9,0,0,0-1.38.46,1.46,1.46,0,0,0-.49,1.13,1.81,1.81,0,0,0,.1.58,1.15,1.15,0,0,0,.33.48,2.39,2.39,0,0,0,.62.42,9.5,9.5,0,0,0,1,.4,15.33,15.33,0,0,1,1.82.75,4.91,4.91,0,0,1,1.21.81,2.64,2.64,0,0,1,.67,1,3.12,3.12,0,0,1,.22,1.22,4.42,4.42,0,0,1-.2,1.31,2.7,2.7,0,0,1-.68,1.13,3.43,3.43,0,0,1-1.31.8,7,7,0,0,1-4.57-.16,5.87,5.87,0,0,1-1.8-1.21l1.3-1.62a3.93,3.93,0,0,0,1.36,1,4.05,4.05,0,0,0,1.63.32,2.43,2.43,0,0,0,1.62-.41,1.51,1.51,0,0,0,.46-1.16,1.55,1.55,0,0,0-.11-.59,1.15,1.15,0,0,0-.37-.47,3.33,3.33,0,0,0-.72-.44c-.31-.14-.7-.29-1.18-.46a6.88,6.88,0,0,1-2.72-1.46,3.06,3.06,0,0,1-.89-2.28,3.61,3.61,0,0,1,.28-1.4,3.26,3.26,0,0,1,.79-1.12,3.59,3.59,0,0,1,1.28-.74,5.23,5.23,0,0,1,1.75-.27,5,5,0,0,1,2,.39,5.35,5.35,0,0,1,1.48,1Z"/></g></g></svg>